<svg viewBox="0 0 1152 1152" width="1152" height="1152" x="0" y="0" xmlns="http://www.w3.org/2000/svg"><defs><pattern id="pattern" x="0" y="0" width="8" height="8" patternUnits="userSpaceOnUse"><polygon points="0,4 0,8 8,0 4,0" fill="#ffffff"></polygon><polygon points="4,8 8,8 8,4" fill="#ffffff"></polygon></pattern><mask id="grating" x="0" y="0" width="1" height="1"><rect x="0" y="0" width="100%" height="100%" fill="url(#pattern)"></rect></mask></defs><g id="horizStripes"><rect fill="#1C0070" height="64" width="100%" x="0" y="0"></rect><rect fill="#F0E0C8" height="24" width="100%" x="0" y="64"></rect><rect fill="#1C0070" height="224" width="100%" x="0" y="88"></rect><rect fill="#F0E0C8" height="256" width="100%" x="0" y="312"></rect><rect fill="#101010" height="24" width="100%" x="0" y="568"></rect><rect fill="#F0E0C8" height="32" width="100%" x="0" y="592"></rect><rect fill="#101010" height="24" width="100%" x="0" y="624"></rect><rect fill="#F0E0C8" height="256" width="100%" x="0" y="648"></rect><rect fill="#1C0070" height="224" width="100%" x="0" y="904"></rect><rect fill="#F0E0C8" height="24" width="100%" x="0" y="1128"></rect></g><g id="vertStripes" mask="url(#grating)"><rect fill="#1C0070" height="100%" width="64" x="0" y="0"></rect><rect fill="#F0E0C8" height="100%" width="24" x="64" y="0"></rect><rect fill="#1C0070" height="100%" width="224" x="88" y="0"></rect><rect fill="#F0E0C8" height="100%" width="256" x="312" y="0"></rect><rect fill="#101010" height="100%" width="24" x="568" y="0"></rect><rect fill="#F0E0C8" height="100%" width="32" x="592" y="0"></rect><rect fill="#101010" height="100%" width="24" x="624" y="0"></rect><rect fill="#F0E0C8" height="100%" width="256" x="648" y="0"></rect><rect fill="#1C0070" height="100%" width="224" x="904" y="0"></rect><rect fill="#F0E0C8" height="100%" width="24" x="1128" y="0"></rect></g></svg>