<?xml version="1.0" encoding="UTF-8" standalone="no"?>
<!-- Created with Inkscape (http://www.inkscape.org/) -->

<svg
   width="71.72377mm"
   height="11.228214mm"
   viewBox="0 0 71.72377 11.228214"
   version="1.1"
   id="svg1249"
   inkscape:version="1.1 (c68e22c387, 2021-05-23)"
   sodipodi:docname="divider__top.svg"
   xmlns:inkscape="http://www.inkscape.org/namespaces/inkscape"
   xmlns:sodipodi="http://sodipodi.sourceforge.net/DTD/sodipodi-0.dtd"
   xmlns="http://www.w3.org/2000/svg"
   xmlns:svg="http://www.w3.org/2000/svg">
  <style
     id="style1306">
.line { 
    fill:#93bfbd !important;
}
</style>
  <sodipodi:namedview
     id="namedview1251"
     pagecolor="#ffffff"
     bordercolor="#666666"
     borderopacity="1.0"
     inkscape:pageshadow="2"
     inkscape:pageopacity="0.0"
     inkscape:pagecheckerboard="0"
     inkscape:document-units="mm"
     showgrid="false"
     inkscape:zoom="1.4467452"
     inkscape:cx="184.89779"
     inkscape:cy="0.34560335"
     inkscape:window-width="1920"
     inkscape:window-height="1001"
     inkscape:window-x="-9"
     inkscape:window-y="-9"
     inkscape:window-maximized="1"
     inkscape:current-layer="layer1" />
  <defs
     id="defs1246" />
  <g
     inkscape:label="Layer 1"
     inkscape:groupmode="layer"
     id="layer1"
     transform="translate(-57.773569,-92.776213)">
    <path
       d="m 86.957732,94.377773 c 0.142522,-0.03845 0.282222,-0.07832 0.392289,-0.117122 0.233539,-0.08043 0.01729,-0.07338 -0.188031,-0.05221 -0.538339,0.05503 -1.146527,0.194733 -1.69933,0.305505 -0.05574,0.01094 -0.515761,0.09842 -0.932745,0.191911 -0.651933,0.149578 -0.651227,0.152753 -1.301044,0.312914 -0.649111,0.164395 -0.650169,0.160161 -1.296811,0.334434 -0.645583,0.1778 -0.648406,0.168627 -1.291872,0.355952 -0.321381,0.0949 -0.476956,0.157692 -0.632531,0.221192 -0.155222,0.06491 -0.310092,0.122061 -0.635,0.242711 -0.324908,0.127 -0.48648,0.218017 -0.642055,0.316089 -0.148167,0.104775 -0.322792,0.214842 -0.528461,0.546453 -0.191559,0.344311 -0.201084,0.572205 -0.188384,0.779639 0.02293,0.200025 0.07514,0.458258 0.38735,0.744361 0.328436,0.264583 0.555625,0.305505 0.776111,0.340077 0.113242,0.0095 0.232481,0.0078 0.378531,-0.03069 0.14358,-0.04163 0.314678,-0.122414 0.47625,-0.290689 0.225072,-0.240242 0.287514,-0.449086 0.327025,-0.617361 0.03281,-0.172509 0.03493,-0.31997 -0.0028,-0.512234 -0.04798,-0.08643 -0.107598,-0.144286 -0.168275,-0.163688 -0.05891,-0.02011 -0.1143,-0.0021 -0.169334,0.04974 -0.100541,0.09772 -0.13723,0.220134 -0.181328,0.334434 -0.03986,0.115005 -0.08925,0.231069 -0.140758,0.309386 -0.09313,0.144286 -0.216958,0.260702 -0.357011,0.301272 -0.08749,0.03916 -0.162983,0.05891 -0.259644,0.05856 -0.0949,-0.0025 -0.224367,-0.02364 -0.376414,-0.143228 -0.194734,-0.172508 -0.219781,-0.299155 -0.242711,-0.42545 -0.01129,-0.126647 -0.01799,-0.271286 0.113947,-0.528461 0.147814,-0.252942 0.286455,-0.326672 0.413103,-0.401461 0.133702,-0.06985 0.264583,-0.133703 0.553155,-0.259292 0.301272,-0.124883 0.451908,-0.187677 0.603603,-0.250472 0.153458,-0.06562 0.306917,-0.13088 0.6223,-0.237772 0.631119,-0.210256 0.647347,-0.158397 1.28023,-0.363361 0.633589,-0.201789 0.621242,-0.245886 1.260475,-0.432858 0.640645,-0.183445 0.648053,-0.154164 1.290109,-0.331259 0.643819,-0.170744 0.644172,-0.16898 1.290814,-0.330553 0.561975,-0.134761 0.636763,-0.152752 1.069269,-0.256469"
       style="fill-opacity:1;fill-rule:nonzero;stroke:none;stroke-width:0.352778"
       id="path501"
       class="line" />
    <path
       d="m 128.05927,97.224304 c -0.22754,0.19685 -0.52987,0.362303 -0.91722,0.480131 -0.38665,0.117475 -0.85619,0.180269 -1.4217,0.202141 -2.30081,0.06209 -3.46039,-0.0575 -4.60869,-0.154516 -0.28751,-0.02928 -0.57467,-0.05891 -0.88018,-0.09031 -0.30444,-0.04057 -0.62688,-0.08361 -0.9853,-0.131233 -0.71579,-0.101247 -1.57339,-0.239183 -2.71181,-0.456142 -1.11619,-0.226483 -1.95615,-0.408516 -2.65677,-0.567972 0.20638,-0.233539 0.43533,-0.461433 0.68792,-0.674511 0.53904,-0.456494 1.18181,-0.841375 1.84468,-1.13665 1.04386,-0.457905 1.89018,-0.651228 2.59221,-0.795514 0.70555,-0.138289 1.27776,-0.210608 1.84996,-0.26423 1.14194,-0.09066 2.30717,-0.13582 4.58929,0.154869 1.1183,0.16757 1.92405,0.464609 2.42887,0.836789 0.50342,0.385233 0.76377,0.850547 0.80222,1.289403 0.0388,0.433916 -0.15311,0.90558 -0.61348,1.307747 m -57.323918,-0.04586 c -1.140531,0.218017 -2.001308,0.347486 -2.72027,0.434622 -0.359833,0.03881 -0.684036,0.07408 -0.989894,0.107597 -0.306564,0.02187 -0.595136,0.04269 -0.883708,0.0635 -1.152525,0.05891 -2.313164,0.140053 -4.607984,0.07796 -0.56268,-0.02293 -1.027288,-0.08537 -1.409347,-0.200378 -0.382764,-0.116063 -0.679802,-0.277636 -0.906286,-0.470252 -0.4572,-0.394406 -0.656166,-0.856192 -0.623005,-1.296106 0.03316,-0.444147 0.293158,-0.923572 0.803627,-1.317625 0.514703,-0.382764 1.330325,-0.680155 2.454628,-0.845255 2.289528,-0.283986 3.455811,-0.220839 4.598106,-0.1143 0.572205,0.06103 1.143352,0.140405 1.84785,0.283986 0.700616,0.150283 1.545519,0.347133 2.587272,0.807861 1.038225,0.469194 1.716969,0.998361 2.214386,1.49225 0.122766,0.123119 0.234244,0.244475 0.337608,0.364772 -0.706614,0.180622 -1.558572,0.379236 -2.702983,0.611364 m 58.741028,-1.373717 c -0.11077,-0.71755 -0.5327,-1.319741 -1.19698,-1.786466 -0.68721,-0.4572 -1.58609,-0.726017 -2.77354,-0.880181 -2.35973,-0.24518 -3.55388,-0.188383 -4.73639,-0.08184 -0.5909,0.05962 -1.18039,0.138994 -1.90747,0.292805 -0.7246,0.15875 -1.60126,0.372534 -2.69452,0.875595 -1.08937,0.510469 -1.81821,1.082675 -2.35197,1.618191 -0.18026,0.182739 -0.33831,0.360892 -0.48189,0.538339 -0.48507,-0.113242 -0.90981,-0.216605 -1.33456,-0.318911 -1.1303,-0.280458 -2.2613,-0.565856 -4.49086,-1.262239 -2.23132,-0.693914 -3.32846,-1.087614 -4.46617,-1.418166 -0.56867,-0.16122 -1.14229,-0.317853 -1.87924,-0.444148 -0.3676,-0.06456 -0.77717,-0.118533 -1.246367,-0.145697 -0.46743,-0.02681 -1.002241,-0.02646 -1.603022,0.0568 -1.202619,0.170392 -2.055989,0.555625 -2.703336,0.957439 -0.642055,0.416984 -1.085497,0.865011 -1.439686,1.370542 -0.227894,0.337961 -0.41663,0.709789 -0.551744,1.141941 C 93.47964,95.88269 93.286671,95.509451 93.051368,95.17396 92.694357,94.678307 92.252679,94.236982 91.611329,93.832346 90.96751,93.438293 90.117315,93.06576 88.923163,92.901718 c -0.596195,-0.07937 -1.12642,-0.07867 -1.591381,-0.05362 -0.466725,0.02681 -0.874889,0.07479 -1.242131,0.135114 -0.735894,0.116769 -1.313391,0.256116 -1.886655,0.401108 -1.147586,0.298097 -2.258131,0.652992 -4.489097,1.341614 -2.229556,0.691091 -3.346097,1.017764 -4.463697,1.34373 -0.410986,0.11677 -0.822325,0.235303 -1.290814,0.360892 -0.266347,-0.337961 -0.574322,-0.669925 -0.926747,-0.975078 -0.575381,-0.498122 -1.252361,-0.915105 -1.948039,-1.237191 -1.094317,-0.499534 -1.970264,-0.714023 -2.694164,-0.876653 -0.726722,-0.157339 -1.315508,-0.242006 -1.906411,-0.308328 -1.183217,-0.117828 -2.379133,-0.1905 -4.746978,0.05362 -1.193447,0.154517 -2.099733,0.434975 -2.789061,0.912636 -0.664986,0.484717 -1.075619,1.110192 -1.16205,1.835856 -0.08008,0.731661 0.23107,1.473905 0.863953,2.037644 0.320675,0.287161 0.738011,0.518936 1.222375,0.673453 0.486128,0.156281 1.039636,0.23107 1.641475,0.26035 0.599017,0.0321 1.113014,0.02011 1.577622,0.03175 0.463197,7.06e-4 0.86995,-0.01905 1.240367,-0.0254 0.370416,-0.0056 0.70238,-0.0381 1.016352,-0.05362 0.314325,-0.01729 0.609953,-0.03598 0.90417,-0.06844 0.294569,-0.02822 0.589139,-0.05644 0.902053,-0.08643 0.311855,-0.04022 0.641702,-0.0829 1.008239,-0.130175 0.732366,-0.09948 1.607255,-0.24518 2.765424,-0.474133 1.324328,-0.280458 2.258837,-0.515055 3.027539,-0.729192 0.08079,0.129117 0.155223,0.259292 0.224367,0.391231 0.250119,0.496358 0.448028,1.029406 0.519289,1.715206 0.03457,0.341136 0.02364,0.723188 -0.0508,1.146168 -0.08149,0.42016 -0.226131,0.88759 -0.511175,1.35255 -0.123825,0.20003 -0.256117,0.37924 -0.397228,0.53482 -0.139347,0.14428 -0.280105,0.27199 -0.438503,0.37182 -0.307622,0.20744 -0.624769,0.34043 -0.919691,0.42828 -0.592314,0.17074 -1.108781,0.18062 -1.536348,0.0699 -0.434269,-0.1069 -0.763411,-0.34608 -0.935919,-0.75354 -0.170039,-0.4004 -0.151694,-0.94368 0.284339,-1.30281 0.267053,-0.25188 0.631825,-0.34925 0.893586,-0.30021 0.136878,0.0198 0.243769,0.0734 0.306564,0.11889 0.04551,0.0497 0.134408,0.0765 0.191558,0.15698 0.128411,0.16757 0.104422,0.35031 0.136525,0.42898 0.03422,0.0854 0.131939,0.11748 0.352072,0.0155 0.2159,-0.0981 0.409223,-0.46214 0.295628,-0.889 -0.02752,-0.10442 -0.07796,-0.20461 -0.130175,-0.31256 -0.07479,-0.0928 -0.154516,-0.18697 -0.25153,-0.26282 -0.192264,-0.15381 -0.424745,-0.249057 -0.655461,-0.28998 -1.249186,-0.219075 -2.443339,0.93415 -2.286353,2.19251 0.06738,0.59972 0.389114,1.15994 0.901347,1.49931 0.255764,0.15804 0.529519,0.27093 0.812447,0.32667 0.28187,0.0533 0.566209,0.0713 0.84455,0.0497 0.555978,-0.0441 1.093259,-0.19897 1.581503,-0.45543 0.244122,-0.12736 0.479072,-0.27729 0.688975,-0.46532 0.215194,-0.18838 0.391936,-0.40287 0.545394,-0.62512 0.615245,-0.9017 0.860073,-1.99566 0.773995,-3.02789 -0.01305,-0.103011 -0.03387,-0.397933 -0.14217,-0.8128 -0.1016,-0.399697 -0.296333,-0.909461 -0.608894,-1.440392 0.368653,-0.107597 0.706261,-0.210961 1.043517,-0.313619 1.122538,-0.348192 2.242255,-0.703086 4.469341,-1.430514 2.227086,-0.724606 3.331986,-1.124303 4.440414,-1.448506 0.555625,-0.159102 1.112308,-0.313266 1.8161,-0.438855 0.351367,-0.06491 0.74048,-0.119239 1.182864,-0.149931 0.443794,-0.03069 0.93733,-0.03563 1.496836,0.03457 1.120775,0.143227 1.911703,0.492125 2.504722,0.850547 0.588433,0.37218 0.988836,0.769408 1.309158,1.217083 0.310798,0.453319 0.544689,0.966258 0.650875,1.651353 0.0508,0.341489 0.06491,0.725664 0.01058,1.155347 -0.05821,0.426861 -0.183798,0.904522 -0.451556,1.386769 -0.262819,0.484718 -0.605719,0.839258 -0.935919,1.114778 -0.337256,0.27058 -0.672395,0.45755 -0.990248,0.59126 -0.637822,0.26529 -1.199797,0.33196 -1.738841,0.2988 -0.53587,-0.0381 -1.077031,-0.19368 -1.642886,-0.54822 -0.277636,-0.18168 -0.566209,-0.41663 -0.801864,-0.74753 -0.235303,-0.32703 -0.433917,-0.751774 -0.430742,-1.247426 0.0039,-0.711906 0.336197,-1.270353 0.684036,-1.588206 0.351014,-0.326672 0.744714,-0.433917 1.049867,-0.412044 0.299508,0.01376 0.564797,0.172861 0.779286,0.382411 0.216606,0.208844 0.373945,0.508352 0.413808,0.812447 0.08326,0.274814 0.06915,0.456142 0.104423,0.617714 0.02187,0.149225 0.107244,0.307975 0.324908,0.263878 0.05151,-0.01094 0.106539,-0.03387 0.164747,-0.06844 0.05292,-0.03704 0.100189,-0.08996 0.1524,-0.153811 0.09878,-0.128412 0.169334,-0.318206 0.192264,-0.542573 0.04163,-0.44838 -0.149225,-1.014589 -0.556683,-1.447447 -0.197909,-0.221544 -0.452614,-0.410633 -0.74542,-0.538692 -0.289983,-0.127705 -0.623005,-0.202847 -0.949325,-0.166863 -0.317852,0.0314 -0.617361,0.122413 -0.870655,0.268816 -0.249767,0.146756 -0.469195,0.3175 -0.630767,0.507295 -0.312914,0.339725 -0.526697,0.752122 -0.647347,1.188155 -0.117828,0.435328 -0.1524,0.902053 -0.04939,1.352903 0.102658,0.450503 0.311856,0.856543 0.588081,1.210033 0.281163,0.34819 0.627591,0.635 1.006827,0.85725 0.503767,0.27975 0.98037,0.42474 1.444978,0.48507 0.466372,0.0589 0.919692,0.0441 1.397353,-0.0554 0.476603,-0.10195 0.984603,-0.27834 1.524353,-0.61419 0.531283,-0.33796 1.116188,-0.83643 1.557513,-1.64112 0.132645,-0.248709 0.233539,-0.493184 0.310445,-0.731661 0.08043,0.252941 0.18803,0.512939 0.333022,0.776463 0.296686,0.545748 0.676981,0.944388 1.0414,1.256598 0.372533,0.3055 0.742244,0.5207 1.093964,0.67874 0.706614,0.31256 1.336675,0.41522 1.962503,0.40182 0.627944,-0.0215 1.260475,-0.17039 1.94698,-0.56974 0.338319,-0.20532 0.695679,-0.47731 1.003309,-0.88441 0.15875,-0.19862 0.29386,-0.43745 0.40887,-0.7045 0.11818,-0.263174 0.18979,-0.586671 0.20849,-0.918282 0.0356,-0.9525 -0.32809,-1.700389 -0.78564,-2.21227 -0.46602,-0.517878 -1.064334,-0.793044 -1.652415,-0.826911 -0.605367,-0.0381 -1.12148,0.186972 -1.544108,0.492478 -0.424039,0.314325 -0.783167,0.737658 -1.008945,1.36525 -0.0702,0.308328 -0.07902,0.612775 -0.01623,0.867128 0.02822,0.127 0.06209,0.239888 0.116769,0.334433 0.05221,0.09384 0.09172,0.177094 0.153106,0.232128 0.230363,0.233891 0.37465,0.183797 0.432505,-0.06703 0.04269,-0.225072 0.05539,-0.534811 0.147814,-0.864306 0.05327,-0.165805 0.116417,-0.341841 0.222603,-0.515055 0.09596,-0.175684 0.230716,-0.346781 0.387703,-0.499886 0.154516,-0.156281 0.342547,-0.287514 0.543277,-0.37465 0.200025,-0.08749 0.414514,-0.142523 0.621948,-0.12312 0.432858,0.02081 0.833263,0.251531 1.094663,0.529167 0.49672,0.506236 0.74789,1.297164 0.60996,2.002367 -0.073,0.350308 -0.24166,0.694619 -0.47026,0.986719 -0.23353,0.29069 -0.527397,0.53693 -0.854069,0.7299 -0.428272,0.25294 -0.842081,0.39582 -1.246717,0.46249 -0.404283,0.0649 -0.807508,0.067 -1.239308,-0.01 -0.430036,-0.0794 -0.89535,-0.2286 -1.391356,-0.52635 -0.487538,-0.30092 -1.025524,-0.75177 -1.423458,-1.477789 -0.262466,-0.489656 -0.392289,-0.970139 -0.444147,-1.401939 -0.05292,-0.432859 -0.03704,-0.820209 0.01552,-1.164167 0.112536,-0.689328 0.345722,-1.209322 0.664634,-1.664758 0.324555,-0.45085 0.728133,-0.854781 1.325386,-1.227314 0.598663,-0.363008 1.399116,-0.709436 2.528358,-0.852664 0.563739,-0.0695 1.062214,-0.06068 1.507772,-0.0254 0.444855,0.03634 0.834675,0.0949 1.186035,0.167217 0.70344,0.140405 1.25625,0.31115 1.80623,0.488244 1.09713,0.359833 2.18863,0.796925 4.41466,1.525764 2.22673,0.732367 3.36056,1.044928 4.4958,1.3462 0.32984,0.08572 0.6604,0.172155 1.01882,0.263172 -0.0677,0.111831 -0.13194,0.224014 -0.19262,0.337961 -0.27622,0.543631 -0.49988,1.127478 -0.58808,1.897945 -0.0434,0.38488 -0.0349,0.814568 0.0416,1.292578 0.085,0.4752 0.23989,1.00542 0.55633,1.54729 0.13794,0.23354 0.28822,0.44379 0.44873,0.6297 0.1704,0.18768 0.34961,0.35314 0.53446,0.47661 0.36619,0.25753 0.72919,0.42016 1.07209,0.53234 0.68792,0.2159 1.30316,0.25682 1.87925,0.1277 0.28963,-0.0603 0.56056,-0.17956 0.82162,-0.35066 0.25682,-0.18027 0.47237,-0.42121 0.63606,-0.71472 0.15875,-0.29528 0.27199,-0.64594 0.27481,-1.05728 0.002,-0.41204 -0.1337,-0.87736 -0.4385,-1.28482 -0.41134,-0.529872 -1.08268,-0.887588 -1.79246,-0.854074 -0.34573,0.01588 -0.70027,0.126294 -0.99554,0.354544 -0.1397,0.11889 -0.29104,0.24871 -0.35313,0.41804 -0.0882,0.15276 -0.14358,0.31821 -0.16616,0.48225 -0.0427,0.35031 0.0459,0.62301 0.17321,0.77541 0.1397,0.15063 0.248,0.21307 0.34361,0.2159 0.17709,0.007 0.23107,-0.1577 0.21731,-0.31292 -0.0102,-0.16545 0.0381,-0.40993 0.19156,-0.57432 0.037,-0.0413 0.0808,-0.0765 0.12523,-0.10619 0.0392,-0.0318 0.0825,-0.0593 0.12983,-0.0836 0.0942,-0.049 0.20708,-0.0879 0.3309,-0.10478 0.32138,-0.0519 0.6918,0.0547 0.9839,0.29669 0.29421,0.242 0.48401,0.60219 0.46743,0.99906 -0.0102,0.39652 -0.21625,0.81386 -0.55033,1.04881 -0.34643,0.23989 -0.81492,0.3302 -1.28235,0.30939 -0.46884,-0.024 -0.9465,-0.14711 -1.37513,-0.35772 -0.21414,-0.10477 -0.41945,-0.22931 -0.59619,-0.37994 -0.17533,-0.1457 -0.33373,-0.32456 -0.47414,-0.52035 -0.55986,-0.78105 -0.80257,-1.77553 -0.72037,-2.704749 0.0124,-0.09172 0.0307,-0.357717 0.13229,-0.735542 0.0977,-0.37712 0.2861,-0.8636 0.59902,-1.371247 0.0208,-0.03457 0.0469,-0.06879 0.0688,-0.103011 0.77823,0.192616 1.7205,0.411338 3.05611,0.691091 1.15606,0.227542 2.02742,0.380295 2.75661,0.492831 0.36477,0.05503 0.69321,0.104775 1.00365,0.152047 0.31151,0.03916 0.60502,0.0762 0.89817,0.113242 0.29316,0.04163 0.58809,0.06738 0.90135,0.09454 0.31362,0.02328 0.64488,0.06562 1.0153,0.0762 0.37041,0.01305 0.77752,0.03951 1.24107,0.04057 0.46531,-0.0074 0.9786,0.0067 1.58009,-0.02716 0.60431,-0.03104 1.1624,-0.110773 1.65171,-0.275167 0.48718,-0.162278 0.90558,-0.406047 1.22237,-0.702381 0.62689,-0.582436 0.9144,-1.343025 0.80998,-2.066572"
       style="fill-opacity:1;fill-rule:nonzero;stroke:none;stroke-width:0.352778"
       id="path505"
       class="line" />
    <path
       d="m 108.54501,96.482729 c -0.14005,-0.119239 -0.29457,-0.235303 -0.62477,-0.361597 -0.32949,-0.120297 -0.49142,-0.150989 -0.65511,-0.191911 -0.16333,-0.03916 -0.32632,-0.07867 -0.64699,-0.174978 -0.64135,-0.190853 -0.62548,-0.24377 -1.27177,-0.419453 -0.64734,-0.172508 -0.66004,-0.127 -1.3081,-0.293864 -0.64875,-0.162278 -0.6417,-0.189441 -1.29434,-0.338314 -0.65334,-0.143933 -0.65228,-0.147814 -1.30774,-0.280811 -0.56868,-0.113241 -0.64524,-0.12453 -1.08409,-0.205669 -0.14676,-0.02011 -0.2914,-0.03634 -0.407812,-0.04339 -0.246592,-0.01517 -0.04339,0.06103 0.153462,0.121003 0.51682,0.155928 1.12677,0.277636 1.6704,0.419805 0.0547,0.01482 0.50482,0.137584 0.9151,0.249414 0.64241,0.176389 0.64347,0.17145 1.28306,0.357011 0.63853,0.189795 0.63747,0.192617 1.27247,0.392642 0.63359,0.203553 0.63076,0.213078 1.26047,0.427214 0.31468,0.10795 0.47555,0.150636 0.63677,0.191911 0.16051,0.04233 0.32737,0.07796 0.62406,0.199672 0.29316,0.125942 0.41734,0.215548 0.53481,0.306917 0.11218,0.09737 0.22613,0.188736 0.36477,0.431094 0.12418,0.246945 0.11995,0.380648 0.11289,0.499534 -0.005,0.06138 -0.0201,0.118886 -0.049,0.183091 -0.03,0.06456 -0.0801,0.140759 -0.17498,0.219075 -0.20073,0.149931 -0.34643,0.135114 -0.44909,0.118887 -0.10618,-0.03175 -0.19438,-0.05433 -0.33055,-0.202848 -0.0935,-0.110066 -0.12665,-0.209197 -0.15028,-0.284691 -0.0208,-0.07761 -0.0289,-0.142875 -0.0184,-0.221898 -0.0448,-0.08043 -0.0952,-0.182386 -0.24024,-0.202847 -0.13441,-0.01693 -0.26282,0.104422 -0.30762,0.287161 -0.0501,0.181681 -0.007,0.396523 0.0536,0.542925 0.10724,0.273403 0.34184,0.513292 0.64876,0.620889 0.20567,0.0508 0.35454,0.03563 0.51823,-3.53e-4 0.16157,-0.04198 0.35101,-0.103011 0.58455,-0.298802 0.30374,-0.279753 0.34572,-0.531284 0.36336,-0.7239 0.006,-0.200378 -0.008,-0.416631 -0.19297,-0.749653 -0.19861,-0.320322 -0.34889,-0.44697 -0.48295,-0.573264"
       style="fill-opacity:1;fill-rule:nonzero;stroke:none;stroke-width:0.352778"
       id="path509"
       class="line" />
  </g>
</svg>
