<?xml version="1.0" encoding="UTF-8" standalone="no"?>
<!-- Created with Inkscape (http://www.inkscape.org/) -->

<svg
   width="72.804665mm"
   height="13.08979mm"
   viewBox="0 0 72.804665 13.08979"
   version="1.1"
   id="svg1501"
   inkscape:version="1.1 (c68e22c387, 2021-05-23)"
   sodipodi:docname="divider__bottom.svg"
   xmlns:inkscape="http://www.inkscape.org/namespaces/inkscape"
   xmlns:sodipodi="http://sodipodi.sourceforge.net/DTD/sodipodi-0.dtd"
   xmlns="http://www.w3.org/2000/svg"
   xmlns:svg="http://www.w3.org/2000/svg">
  <style
     id="style1532">
.line { 
    fill:#93bfbb !important;
}
</style>
  <sodipodi:namedview
     id="namedview1503"
     pagecolor="#ffffff"
     bordercolor="#666666"
     borderopacity="1.0"
     inkscape:pageshadow="2"
     inkscape:pageopacity="0.0"
     inkscape:pagecheckerboard="0"
     inkscape:document-units="mm"
     showgrid="false"
     inkscape:zoom="2.8934905"
     inkscape:cx="179.54094"
     inkscape:cy="45.446841"
     inkscape:window-width="1920"
     inkscape:window-height="1001"
     inkscape:window-x="-9"
     inkscape:window-y="-9"
     inkscape:window-maximized="1"
     inkscape:current-layer="layer1" />
  <defs
     id="defs1498" />
  <g
     inkscape:label="Layer 1"
     inkscape:groupmode="layer"
     id="layer1"
     transform="translate(-62.353676,-49.416923)">
    <path
       d="m 81.730492,54.046174 c -0.0088,0.02152 -0.09984,0.194733 -0.161925,0.361244 -0.05221,0.12947 -0.07338,0.195792 -0.09313,0.26282 l -0.0822,0.267053 c -0.06985,0.270933 -0.07514,0.269875 -0.128763,0.545747 -0.02999,0.137583 -0.03422,0.208139 -0.04833,0.277283 -0.01058,0.06985 -0.02752,0.139347 -0.03669,0.280106 -0.02505,0.282222 0.03034,0.282575 0.02716,0.563033 0.01376,0.280811 -0.01376,0.283281 0.01834,0.564092 0.01376,0.140758 0.02681,0.210255 0.04163,0.279752 0.01376,0.06915 0.02752,0.138289 0.05468,0.277284 0.06562,0.274461 0.0064,0.290689 0.09419,0.563033 0.06244,0.191911 0.105128,0.239889 0.154517,0.346781 0.05856,0.03669 0.126295,0.04657 0.202142,-0.0063 0.142169,-0.09772 0.113241,-0.265289 0.09701,-0.365478 -0.01235,-0.09313 -0.03457,-0.183445 -0.05539,-0.273756 -0.05151,-0.111477 -0.0829,-0.155927 -0.133703,-0.347133 -0.02928,-0.129822 -0.0441,-0.194381 -0.05891,-0.259644 -0.01623,-0.06491 -0.03104,-0.129823 -0.04868,-0.262114 -0.04092,-0.264231 0.0381,-0.271639 0.0085,-0.533753 -0.01482,-0.264231 -0.05821,-0.264231 -0.05574,-0.531636 -0.0021,-0.134056 0.01764,-0.199672 0.03104,-0.265289 0.01693,-0.06526 0.02399,-0.131586 0.03739,-0.263878 0.02046,-0.266347 -0.01446,-0.272344 0.02716,-0.539044 0.02293,-0.132645 0.04551,-0.19685 0.06315,-0.261409 0.01799,-0.06773 0.03528,-0.132291 0.06985,-0.259997 0.06103,-0.264583 0.07267,-0.26035 0.147814,-0.521758 0.07973,-0.221545 0.08255,-0.255764 0.153459,-0.423333 0.01693,-0.04375 0.03563,-0.09137 0.06068,-0.156987 0.04092,-0.09172 0.0063,-0.01129 -0.04022,0.05927 -0.124531,0.184503 -0.248003,0.411339 -0.345017,0.624064"
       style="fill-opacity:1;fill-rule:nonzero;stroke:none;stroke-width:0.352778"
       id="path441"
       class="line" />
    <path
       d="m 109.07476,49.904104 c -0.12806,-0.0063 -0.25048,-0.0095 -0.36337,-0.0095 -0.39052,-0.0018 -0.70026,0.03528 -1.00788,0.07373 -0.60784,0.103011 -1.22978,0.207786 -2.35056,0.693561 -0.55633,0.249766 -0.94756,0.484364 -1.26506,0.68968 -0.3168,0.206022 -0.56162,0.384528 -0.79622,0.571853 -0.39017,0.3175 -0.78423,0.644172 -1.36525,1.264355 0.0254,-0.268111 0.004,-0.414161 -0.019,-0.552097 -0.0296,-0.144286 -0.0547,-0.288925 -0.14993,-0.568325 -0.10301,-0.27693 -0.17956,-0.408516 -0.25753,-0.538691 -0.0822,-0.124884 -0.16968,-0.263173 -0.4191,-0.448028 -0.25647,-0.175683 -0.41628,-0.209903 -0.56656,-0.238831 -0.15311,-0.02081 -0.30586,-0.04727 -0.612423,-0.02293 -0.306563,0.03986 -0.451908,0.116769 -0.586669,0.192969 -0.128411,0.08502 -0.276931,0.169686 -0.438856,0.4572 -0.09102,0.179211 -0.112536,0.320675 -0.120297,0.437797 -0.0078,-0.117122 -0.02928,-0.258586 -0.119944,-0.437797 -0.161925,-0.287514 -0.310797,-0.37218 -0.438856,-0.4572 -0.135114,-0.0762 -0.280105,-0.153105 -0.586669,-0.192969 -0.306917,-0.02434 -0.45967,0.0021 -0.612775,0.02293 -0.150284,0.02893 -0.310092,0.06315 -0.566561,0.238831 -0.249414,0.184855 -0.336903,0.323144 -0.4191,0.448028 -0.07796,0.130175 -0.154517,0.261761 -0.257528,0.538691 -0.09525,0.2794 -0.120297,0.424039 -0.149931,0.568325 -0.02293,0.137936 -0.04445,0.283986 -0.01905,0.552097 -0.580672,-0.620183 -0.975077,-0.946855 -1.364897,-1.264355 -0.23495,-0.187325 -0.479778,-0.365831 -0.796572,-0.571853 -0.317147,-0.205316 -0.708731,-0.439914 -1.265061,-0.68968 -1.120422,-0.485775 -1.742722,-0.59055 -2.350558,-0.693561 -0.307623,-0.03845 -0.617361,-0.0755 -1.007886,-0.07373 -0.112889,0 -0.235303,0.0032 -0.363362,0.0095 -0.06738,-0.01376 -0.134761,-0.02716 -0.202494,-0.03916 0.979311,0.0127 1.374775,0.03775 2.945694,0.03775 2.099381,0.0032 2.099381,0.0032 4.198761,0.006 1.780823,-0.0032 2.054578,-0.0035 3.376789,-0.006 1.322215,0.0025 1.596325,0.0028 3.377145,0.006 2.09903,-0.0028 2.09903,-0.0028 4.19841,-0.006 1.57091,0 1.96673,-0.02505 2.94569,-0.03775 -0.0677,0.01199 -0.13511,0.0254 -0.20249,0.03916 m -7.48172,3.284714 c -0.0145,0.2032 -0.0367,0.325966 -0.0589,0.4318 -0.73942,0.863953 -1.05903,1.345847 -1.38606,1.8161 -0.163689,0.241653 -0.324555,0.484011 -0.517525,0.79375 -0.191205,0.311503 -0.42545,0.687564 -0.678744,1.232958 -0.07197,0.152047 -0.136878,0.311503 -0.195792,0.473428 -0.05891,-0.161925 -0.123825,-0.321381 -0.195439,-0.473428 -0.253647,-0.545394 -0.488244,-0.921455 -0.679097,-1.232958 -0.192969,-0.309739 -0.353483,-0.552097 -0.517525,-0.79375 -0.327025,-0.470253 -0.646642,-0.952147 -1.386064,-1.8161 -0.02222,-0.105834 -0.04445,-0.2286 -0.05891,-0.4318 -0.01305,-0.259645 0.006,-0.388409 0.02505,-0.515056 0.02328,-0.125589 0.04445,-0.254 0.135819,-0.488244 0.09737,-0.23107 0.160514,-0.337256 0.22472,-0.444147 0.06809,-0.103364 0.136525,-0.211667 0.342547,-0.354542 0.210608,-0.13335 0.33408,-0.165806 0.451908,-0.194381 0.118886,-0.02293 0.241653,-0.04833 0.475897,-0.02505 0.231775,0.03634 0.335139,0.09384 0.433211,0.152047 0.09278,0.06209 0.197909,0.129823 0.301273,0.319617 0.0889,0.191911 0.05468,0.310445 0.02646,0.402872 -0.03704,0.0889 -0.08008,0.189795 -0.20567,0.280811 -0.09384,0.05821 -0.182033,0.06844 -0.246944,0.06809 -0.06562,-0.0018 -0.121003,-0.01023 -0.176742,-0.04269 -0.07126,0.0028 -0.153811,-0.01058 -0.2032,0.07161 -0.04657,0.07726 0.0064,0.210609 0.137231,0.29457 0.128058,0.08749 0.309386,0.108302 0.440267,0.09172 0.247297,-0.02117 0.487891,-0.202495 0.598663,-0.422628 0.05821,-0.129822 0.07126,-0.234597 0.07655,-0.346428 0.0053,0.111831 0.01834,0.216606 0.07655,0.346428 0.110772,0.220133 0.351367,0.401461 0.598664,0.422628 0.131233,0.01658 0.312561,-0.0042 0.440267,-0.09172 0.130885,-0.08396 0.183795,-0.217311 0.137235,-0.29457 -0.0494,-0.0822 -0.131944,-0.06879 -0.202852,-0.07161 -0.05609,0.03246 -0.111478,0.04092 -0.177095,0.04269 -0.06456,3.52e-4 -0.153105,-0.0099 -0.246944,-0.06809 -0.125236,-0.09102 -0.168628,-0.191911 -0.205317,-0.280811 -0.02822,-0.09243 -0.06244,-0.210961 0.02611,-0.402872 0.103364,-0.189794 0.208844,-0.257528 0.301272,-0.319617 0.09842,-0.05821 0.201436,-0.115711 0.433564,-0.152047 0.234242,-0.02328 0.356662,0.0021 0.475542,0.02505 0.11818,0.02858 0.2413,0.06103 0.45226,0.194381 0.20567,0.142875 0.27411,0.251178 0.3422,0.354542 0.0646,0.106891 0.1277,0.213077 0.22507,0.444147 0.091,0.234244 0.11218,0.362655 0.13547,0.488244 0.019,0.126647 0.0381,0.255411 0.025,0.515056 m 32.95756,-3.354211 c -0.30445,-0.226131 -0.59232,-0.318911 -0.87772,-0.369711 -0.55985,-0.09031 -1.10631,-0.03387 -2.14136,0.01305 -2.09656,-0.0018 -2.09656,-0.0018 -4.19311,-0.0032 -2.09974,0.0095 -2.09974,0.0095 -4.19912,0.01905 -2.09938,0 -2.09938,-0.0575 -4.19876,-0.0575 -2.09973,0.0053 -2.09973,0.0053 -4.19946,0.01094 -2.09974,0.0025 -2.09974,0.0025 -4.19912,0.0049 -2.09973,-0.0035 -2.09973,-0.0035 -4.19911,-0.0071 -1.34021,0.0095 -2.81023,0.0194 -2.98768,0.02046 -1.49048,0.01482 -3.11291,-0.02857 -4.599162,0.03175 -1.4859,-0.06032 -3.108677,-0.01693 -4.598811,-0.03175 -0.1778,-0.0011 -1.647825,-0.01094 -2.987675,-0.02046 l -4.199466,0.0071 c -2.099381,-0.0025 -2.099381,-0.0025 -4.199114,-0.0049 -2.099381,-0.0056 -2.099733,-0.0056 -4.199114,-0.01094 -2.099733,0 -2.099733,0.0575 -4.199114,0.0575 -2.09938,-0.0095 -2.09938,-0.0095 -4.198761,-0.01905 -2.096911,0.0014 -2.096911,0.0014 -4.193469,0.0032 -1.034697,-0.04692 -1.581503,-0.103363 -2.141361,-0.01305 -0.285397,0.0508 -0.573264,0.14358 -0.877711,0.369711 -0.289983,0.217664 -0.642408,0.641703 -0.605014,1.287991 0.02364,0.452262 0.301272,0.815623 0.595489,0.963789 0.291394,0.156986 0.588433,0.175684 0.843844,0.105481 0.256117,-0.07585 0.463197,-0.238831 0.575734,-0.480131 0.116416,-0.238125 0.08819,-0.614539 -0.224367,-0.814916 -0.07408,-0.04163 -0.166158,-0.06385 -0.248003,-0.06033 -0.08079,0.0028 -0.149225,0.02505 -0.206022,0.05433 -0.113242,0.05927 -0.179211,0.152048 -0.204258,0.228248 -0.0254,0.07761 -0.01023,0.131939 0.0053,0.146755 0.01764,0.01623 0.0381,-0.0021 0.07126,-0.03775 0.0575,-0.06632 0.185914,-0.150636 0.32773,-0.117122 0.131234,0.02752 0.233539,0.215547 0.179917,0.372533 -0.04974,0.164395 -0.228953,0.303389 -0.413808,0.331258 -0.188031,0.03457 -0.385234,-0.02152 -0.519289,-0.106891 -0.257175,-0.150636 -0.374298,-0.461081 -0.3429,-0.770114 0.02681,-0.312208 0.204258,-0.59055 0.465314,-0.777875 0.343958,-0.252942 0.657225,-0.315383 1.0541,-0.352072 0.40005,-0.03739 0.879827,-0.006 1.668991,0.0254 2.101145,-0.0032 2.101497,-0.0032 4.202642,-0.0064 2.099027,0 2.099027,0.07338 4.198055,0.07338 2.099028,0 2.099028,-0.04339 4.198055,-0.04339 2.099381,0 2.099381,0.06138 4.198761,0.06138 0.91687,0 1.433336,-0.01129 1.899003,-0.02434 -0.214489,0.04375 -0.433211,0.09701 -0.646289,0.163689 -0.822325,0.250825 -1.212497,0.450498 -1.594203,0.651934 -0.381,0.206022 -0.75953,0.424391 -1.437569,0.942269 -0.668867,0.525286 -0.972608,0.811742 -1.284464,1.087261 -0.237772,0.217311 -0.477661,0.436739 -0.862541,0.788458 -0.06421,0.0014 -0.119592,-0.0011 -0.172509,-0.0049 -0.119591,-0.01411 -0.243064,-0.02328 -0.463903,-0.111478 -0.219075,-0.09525 -0.310444,-0.177447 -0.400402,-0.252942 -0.08608,-0.08043 -0.176036,-0.161925 -0.301978,-0.359128 -0.119945,-0.199672 -0.156986,-0.309386 -0.198614,-0.418747 -0.03457,-0.110772 -0.07549,-0.228953 -0.05786,-0.467783 0.02434,-0.237772 0.07338,-0.350308 0.119592,-0.457553 0.05151,-0.104775 0.102658,-0.214842 0.250472,-0.389467 0.153811,-0.168627 0.254353,-0.224013 0.34925,-0.273402 0.09384,-0.04233 0.204611,-0.09349 0.395817,-0.07091 0.194028,0.03986 0.2667,0.132292 0.314678,0.202495 0.04128,0.07126 0.0822,0.164747 0.05856,0.273403 -0.02328,0.0896 -0.08043,0.149577 -0.122061,0.185913 -0.04445,0.03634 -0.08431,0.05539 -0.130528,0.06103 -0.03951,0.04304 -0.115358,0.07444 -0.121356,0.168628 -0.0067,0.08784 0.110773,0.181328 0.268112,0.16898 0.156633,-0.0064 0.307975,-0.106891 0.394758,-0.202847 0.0822,-0.08784 0.144286,-0.201436 0.168628,-0.331964 0.02505,-0.134408 0.0042,-0.268111 -0.04057,-0.38488 -0.07197,-0.150636 -0.15875,-0.228248 -0.262114,-0.30727 -0.106539,-0.07408 -0.237772,-0.157339 -0.475544,-0.197908 -0.327378,-0.03246 -0.472722,0.05186 -0.608895,0.112183 -0.131938,0.07197 -0.265288,0.150636 -0.457552,0.37077 -0.182739,0.226836 -0.250473,0.355952 -0.322439,0.484364 -0.06456,0.13088 -0.13335,0.270227 -0.152753,0.566561 -0.01129,0.296686 0.03881,0.443089 0.0822,0.582083 0.05186,0.136878 0.1016,0.278342 0.260703,0.518583 0.166158,0.235303 0.272697,0.333728 0.376767,0.433917 0.108655,0.09349 0.221191,0.195792 0.496358,0.297392 0.202847,0.06773 0.337256,0.08079 0.450144,0.0822 -0.01517,0.01411 -0.02858,0.02611 -0.0441,0.04022 -0.598664,0.539398 -0.910519,0.777875 -1.226255,1.008592 -0.317853,0.223661 -0.631473,0.457906 -1.293989,0.814211 -0.662517,0.338314 -1.00965,0.465314 -1.361722,0.593725 -0.351367,0.106892 -0.726723,0.23495 -1.46297,0.166864 -0.36478,-0.04162 -0.632538,-0.12558 -0.837855,-0.210599 -0.207433,-0.08467 -0.364772,-0.176742 -0.513644,-0.2794 -0.286103,-0.212725 -0.603956,-0.434622 -0.970492,-1.060097 -0.327731,-0.64382 -0.301272,-1.033992 -0.263172,-1.370189 0.02399,-0.170745 0.07761,-0.339725 0.1778,-0.537986 0.100541,-0.195792 0.255058,-0.42792 0.536575,-0.656873 0.282928,-0.226483 0.540808,-0.324908 0.751416,-0.373238 0.212725,-0.05362 0.384528,-0.03387 0.546453,-0.01588 0.156634,0.03845 0.320675,0.08079 0.478014,0.185208 0.154517,0.101247 0.356306,0.266347 0.449439,0.53093 0.06279,0.185209 0.02646,0.317853 -0.02293,0.401109 -0.0448,0.04868 -0.102658,0.06738 -0.1651,0.08114 -0.06068,0.0127 -0.126647,0.01023 -0.176741,-0.01235 l -0.03351,-0.01976 -0.02258,-0.0314 c -0.0021,-0.006 -0.0032,-0.01341 -0.0042,-0.0187 l -7.06e-4,-0.0088 -0.0018,0.02434 c 0.0018,0.02611 -0.0039,0.06103 -0.01023,0.0896 -0.0011,0.0194 -0.0127,0.0501 -0.01764,0.0635 -0.0025,0.0095 -0.0095,0.02364 -0.01517,0.0321 -0.0078,0.0067 -0.01552,0.01376 -0.02258,0.02046 -0.03457,0.02787 -0.06632,0.05327 -0.09807,0.07902 -0.07126,0.05644 -0.151694,0.120297 -0.218369,0.209903 -0.127706,0.162983 -0.134408,0.380294 0.02011,0.539044 0.149578,0.158045 0.424392,0.230717 0.677686,0.179917 0.257528,-0.04233 0.502709,-0.182033 0.691092,-0.37465 0.189442,-0.190853 0.309033,-0.463197 0.336903,-0.690386 0.05962,-0.401814 -0.07303,-0.790222 -0.271286,-1.082675 -0.200025,-0.296686 -0.462845,-0.534811 -0.777523,-0.692503 -0.426861,-0.174977 -0.754239,-0.192264 -1.126066,-0.145697 -0.365125,0.06068 -0.803981,0.1778 -1.331737,0.59937 -0.352072,0.286808 -0.550333,0.574322 -0.684388,0.825499 -0.132645,0.253295 -0.20955,0.474487 -0.248709,0.703792 -0.04833,0.230364 -0.04974,0.4572 -0.02928,0.741892 0.02752,0.282575 0.09913,0.622653 0.293511,1.029405 0.198614,0.404284 0.404284,0.674864 0.582436,0.893939 0.184503,0.214136 0.343606,0.379589 0.518584,0.531636 0.174272,0.152048 0.361597,0.295628 0.625122,0.432859 0.263172,0.138289 0.590903,0.269875 1.051983,0.34925 0.460022,0.0769 0.809272,0.06632 1.093611,0.04198 0.285397,-0.02399 0.506942,-0.07655 0.72637,-0.128411 0.4318,-0.124178 0.866775,-0.249414 1.656291,-0.643467 0.772936,-0.411338 1.131006,-0.653344 1.497542,-0.88265 0.358775,-0.237066 0.716491,-0.485775 1.319036,-1.070327 0.597605,-0.585964 0.850547,-0.905581 1.116189,-1.217789 0.265289,-0.309034 0.524933,-0.626886 1.129241,-1.148292 0.609248,-0.512939 0.954617,-0.703791 1.297517,-0.887236 0.345722,-0.179564 0.691444,-0.359833 1.422047,-0.643114 0.737306,-0.268464 1.128889,-0.34678 1.516945,-0.418041 0.195086,-0.03387 0.390172,-0.07091 0.637469,-0.09243 0.01552,-0.0025 0.03316,-0.0039 0.04904,-0.006 -0.218722,0.0829 -0.408516,0.169333 -0.576791,0.254 -0.349603,0.176741 -0.611717,0.351013 -0.860425,0.540808 -0.251178,0.185208 -0.483659,0.396169 -0.759531,0.668867 -0.269875,0.280105 -0.582436,0.627238 -0.9017,1.16593 -0.310092,0.540808 -0.456494,0.985308 -0.557389,1.356783 -0.09243,0.375003 -0.138994,0.681214 -0.160161,0.989189 -0.01834,0.307975 -0.02046,0.619478 0.03563,1.003653 0.05539,0.382058 0.158044,0.845256 0.439913,1.404055 0.284692,0.555978 0.614892,0.913695 0.90417,1.169812 0.290689,0.259644 0.555625,0.42545 0.827617,0.570441 0.272697,0.14605 0.561269,0.259292 0.931333,0.366184 0.372886,0.09243 0.83573,0.176741 1.457678,0.125236 0.621241,-0.06738 1.068916,-0.248003 1.419225,-0.430389 0.346075,-0.19297 0.600075,-0.391936 0.826558,-0.622653 0.225072,-0.231069 0.428978,-0.497064 0.596194,-0.886531 0.161925,-0.382411 0.273403,-0.941563 0.08326,-1.62313 -0.281164,-0.965553 -0.966258,-1.479197 -1.605845,-1.622778 -0.315383,-0.07479 -0.610305,-0.07761 -0.910519,-0.03104 -0.299156,0.05256 -0.610658,0.147461 -0.948972,0.3683 -0.279047,0.260703 -0.394053,0.597958 -0.34925,0.802216 0.04304,0.213784 0.220133,0.283281 0.463903,0.268464 0.457905,-0.03704 0.724958,-0.172861 1.080911,-0.271991 0.177447,-0.0441 0.372886,-0.07796 0.553155,-0.05468 0.177447,0.01446 0.33902,0.08784 0.473075,0.183092 0.242006,0.172508 0.433564,0.459316 0.516114,0.779639 0.08573,0.323144 0.05256,0.65793 -0.07267,0.976841 -0.153458,0.420159 -0.365478,0.696384 -0.666045,0.971903 -0.306916,0.264231 -0.741186,0.548217 -1.527527,0.641703 -0.530931,0.04233 -0.93345,-0.03387 -1.256595,-0.117475 -0.32138,-0.09525 -0.570089,-0.200378 -0.805391,-0.329495 -0.233186,-0.13088 -0.460728,-0.277636 -0.703086,-0.506941 -0.242712,-0.227189 -0.508706,-0.52952 -0.7366,-1.014236 -0.226131,-0.483659 -0.291748,-0.888648 -0.316442,-1.2192 -0.02575,-0.33267 0.0011,-0.600781 0.04339,-0.861836 0.103363,-0.512939 0.211666,-1.051631 0.744713,-1.92652 0.280459,-0.42298 0.553156,-0.705555 0.785989,-0.926747 0.240595,-0.214842 0.439209,-0.383822 0.656167,-0.530578 0.214489,-0.149578 0.440267,-0.286808 0.739775,-0.426861 0.29845,-0.1397 0.673805,-0.28328 1.194858,-0.388055 0.522111,-0.102659 0.922514,-0.109714 1.252714,-0.09384 0.331964,0.01517 0.595136,0.06491 0.854781,0.116064 0.517172,0.123119 1.031875,0.246591 2.020711,0.645583 0.492477,0.206022 0.852664,0.39123 1.151114,0.549628 0.297744,0.160513 0.536222,0.2921 0.769408,0.437444 0.46355,0.292806 0.934508,0.596547 1.723319,1.388886 0.776817,0.805392 1.098903,1.274586 1.430514,1.728964 0.159456,0.232833 0.318911,0.465667 0.518231,0.756356 0.192616,0.292805 0.426861,0.640997 0.673805,1.127477 0.244828,0.487539 0.358422,0.874184 0.422275,1.198034 0.05821,0.321027 0.06421,0.584552 0.0441,0.842786 -0.02117,0.258233 -0.07479,0.513644 -0.191205,0.806802 -0.121708,0.281517 -0.318558,0.633589 -0.708731,0.887942 -0.342547,0.2159 -0.682272,0.258233 -0.943327,0.251883 -0.264936,-0.0099 -0.46602,-0.08008 -0.626534,-0.168627 -0.31503,-0.180975 -0.519289,-0.499181 -0.261761,-0.940506 0.06703,-0.140053 0.171803,-0.251178 0.251531,-0.318911 0.0829,-0.0702 0.129822,-0.09701 0.143933,-0.159808 0.06844,-0.303389 0.184856,-0.611717 -0.0575,-0.873831 -0.123119,-0.140758 -0.287161,-0.187325 -0.5334,-0.179564 -0.242711,0.0127 -0.464961,0.182386 -0.617008,0.371122 -0.395464,0.513292 -0.472722,1.20262 -0.243769,1.820687 0.24765,0.643113 0.836788,1.043516 1.425927,1.158522 0.595489,0.114652 1.20015,-0.0088 1.699684,-0.307975 0.47625,-0.289278 0.791986,-0.724606 0.999066,-1.181806 0.207081,0.4572 0.522817,0.892528 0.999067,1.181806 0.499537,0.299155 1.104197,0.422627 1.700037,0.307975 0.58914,-0.115006 1.17793,-0.515409 1.42593,-1.158522 0.2286,-0.618067 0.15169,-1.307395 -0.24412,-1.820687 -0.1517,-0.188736 -0.3743,-0.358422 -0.61666,-0.371122 -0.24624,-0.0078 -0.41063,0.03881 -0.53375,0.179564 -0.24236,0.262114 -0.12594,0.570442 -0.0575,0.873831 0.0141,0.06279 0.061,0.0896 0.14393,0.159808 0.0797,0.06773 0.1845,0.178858 0.25153,0.318911 0.25753,0.441325 0.0533,0.759531 -0.26176,0.940506 -0.16087,0.08855 -0.3616,0.15875 -0.62653,0.168627 -0.26071,0.0063 -0.60043,-0.03598 -0.943332,-0.251883 -0.390172,-0.254353 -0.587022,-0.606425 -0.70873,-0.887942 -0.116417,-0.293158 -0.170039,-0.548569 -0.190853,-0.806802 -0.02011,-0.258234 -0.01446,-0.521759 0.0441,-0.842786 0.0635,-0.32385 0.177094,-0.710495 0.421922,-1.198034 0.247297,-0.48648 0.481193,-0.834672 0.673803,-1.127477 0.19932,-0.290689 0.35913,-0.523523 0.51859,-0.756356 0.33126,-0.454378 0.65334,-0.923572 1.43051,-1.728964 0.78846,-0.792339 1.25977,-1.09608 1.72297,-1.388886 0.23318,-0.145344 0.47166,-0.276931 0.76941,-0.437444 0.2988,-0.158398 0.65863,-0.343606 1.15111,-0.549628 0.98884,-0.398992 1.50354,-0.522464 2.02071,-0.645583 0.25965,-0.05115 0.52282,-0.100895 0.85478,-0.116064 0.33055,-0.01588 0.7306,-0.0088 1.25272,0.09384 0.52105,0.104775 0.8964,0.248355 1.19521,0.388055 0.29951,0.140053 0.52528,0.277283 0.73942,0.426861 0.21696,0.146756 0.41557,0.315736 0.65617,0.530578 0.23283,0.221192 0.50553,0.503767 0.78598,0.926747 0.53305,0.874889 0.64135,1.413581 0.74472,1.92652 0.0423,0.261055 0.0691,0.529166 0.0434,0.861836 -0.0247,0.330552 -0.09,0.735541 -0.31609,1.2192 -0.22825,0.484716 -0.49424,0.787047 -0.73695,1.014236 -0.24236,0.229305 -0.4699,0.376061 -0.70309,0.506941 -0.23495,0.129117 -0.48401,0.234245 -0.80539,0.329495 -0.32315,0.08361 -0.72567,0.159808 -1.25624,0.117475 -0.7867,-0.09349 -1.22097,-0.377472 -1.52788,-0.641703 -0.30057,-0.275519 -0.51259,-0.551744 -0.66605,-0.971903 -0.12523,-0.318911 -0.1584,-0.653697 -0.0727,-0.976841 0.0829,-0.320323 0.27446,-0.607131 0.51612,-0.779639 0.13405,-0.09525 0.29562,-0.168628 0.47342,-0.183092 0.17992,-0.02328 0.37571,0.01058 0.55281,0.05468 0.35595,0.09913 0.62336,0.23495 1.08091,0.271991 0.24412,0.01482 0.42122,-0.05468 0.4639,-0.268464 0.0448,-0.204258 -0.0702,-0.541513 -0.34925,-0.802216 -0.33831,-0.220839 -0.64982,-0.315736 -0.94862,-0.3683 -0.30056,-0.04657 -0.59513,-0.04375 -0.91087,0.03104 -0.63959,0.143581 -1.32468,0.657225 -1.60584,1.622778 -0.19015,0.681567 -0.0787,1.240719 0.0836,1.62313 0.16686,0.389467 0.37076,0.655462 0.59619,0.886531 0.22613,0.230717 0.48013,0.429683 0.82621,0.622653 0.3503,0.182386 0.79798,0.363008 1.41922,0.430389 0.62195,0.0515 1.08479,-0.03281 1.45803,-0.125236 0.36971,-0.106892 0.65828,-0.220134 0.93098,-0.366184 0.27199,-0.144991 0.53693,-0.310797 0.82762,-0.570441 0.28928,-0.256117 0.61948,-0.613834 0.90417,-1.169812 0.28187,-0.558799 0.38453,-1.021997 0.43991,-1.404055 0.0561,-0.384175 0.054,-0.695678 0.0356,-1.003653 -0.0212,-0.307975 -0.0677,-0.614186 -0.15981,-0.989189 -0.10124,-0.371475 -0.24765,-0.815975 -0.55739,-1.356783 -0.31926,-0.538692 -0.63217,-0.885825 -0.9017,-1.16593 -0.27622,-0.272698 -0.50835,-0.483659 -0.75988,-0.668867 -0.24871,-0.189795 -0.51047,-0.364067 -0.86042,-0.540808 -0.16793,-0.08467 -0.35807,-0.171098 -0.5768,-0.254 0.0159,0.0021 0.0335,0.0035 0.049,0.006 0.2473,0.02152 0.44239,0.05856 0.63747,0.09243 0.38806,0.07126 0.78,0.149577 1.51695,0.418041 0.7306,0.283281 1.07632,0.46355 1.42205,0.643114 0.3429,0.183445 0.68862,0.374297 1.29787,0.887236 0.6043,0.521406 0.86395,0.839258 1.12888,1.148292 0.266,0.312208 0.51894,0.631825 1.11619,1.217789 0.60255,0.584552 0.96026,0.833261 1.31939,1.070327 0.36619,0.229306 0.72425,0.471312 1.49719,0.88265 0.78952,0.394053 1.22449,0.519289 1.65629,0.643467 0.21943,0.05186 0.44097,0.104422 0.72637,0.128411 0.28434,0.02434 0.63359,0.03493 1.09361,-0.04198 0.46108,-0.07937 0.78881,-0.210961 1.05199,-0.34925 0.26352,-0.137231 0.45085,-0.280811 0.62547,-0.432859 0.17463,-0.152047 0.33373,-0.3175 0.51823,-0.531636 0.17815,-0.219075 0.38382,-0.489655 0.58279,-0.893939 0.19403,-0.406752 0.26564,-0.74683 0.29316,-1.029405 0.0205,-0.284692 0.0191,-0.511528 -0.0289,-0.741892 -0.0395,-0.229305 -0.11642,-0.450497 -0.24871,-0.703792 -0.13441,-0.251177 -0.33267,-0.538691 -0.68439,-0.825499 -0.52811,-0.42157 -0.96696,-0.538692 -1.33209,-0.59937 -0.37183,-0.04657 -0.6992,-0.02928 -1.12606,0.145697 -0.31468,0.157692 -0.5775,0.395817 -0.77753,0.692503 -0.19826,0.292453 -0.3309,0.680861 -0.27128,1.082675 0.0279,0.227189 0.14746,0.499533 0.3369,0.690386 0.18838,0.192617 0.43356,0.332317 0.69109,0.37465 0.2533,0.0508 0.52811,-0.02187 0.67769,-0.179917 0.15451,-0.15875 0.14781,-0.376061 0.0201,-0.539044 -0.0667,-0.08961 -0.14711,-0.153458 -0.21802,-0.209903 -0.0321,-0.02575 -0.0635,-0.05115 -0.0984,-0.07902 -0.007,-0.0067 -0.0148,-0.01376 -0.0222,-0.02046 -0.006,-0.0085 -0.0131,-0.02258 -0.0152,-0.0321 -0.005,-0.0134 -0.0166,-0.0441 -0.018,-0.0635 -0.006,-0.02857 -0.012,-0.0635 -0.0102,-0.0896 l -0.002,-0.02434 -7e-4,0.0088 c -0.001,0.0053 -0.002,0.0127 -0.004,0.0187 l -0.0226,0.0314 -0.0335,0.01976 c -0.0501,0.02258 -0.11607,0.02505 -0.17675,0.01235 -0.0624,-0.01376 -0.12029,-0.03246 -0.1651,-0.08114 -0.0494,-0.08326 -0.0857,-0.2159 -0.0226,-0.401109 0.0928,-0.264583 0.29457,-0.429683 0.44909,-0.53093 0.15734,-0.104422 0.32138,-0.146756 0.47801,-0.185208 0.16193,-0.01799 0.33373,-0.03775 0.54646,0.01588 0.2106,0.04833 0.46849,0.146755 0.75141,0.373238 0.28152,0.228953 0.43604,0.461081 0.53658,0.656873 0.10019,0.198261 0.15381,0.367241 0.17815,0.537986 0.0378,0.336197 0.0642,0.726369 -0.26352,1.370189 -0.36654,0.625475 -0.68439,0.847372 -0.97014,1.060097 -0.14923,0.102658 -0.30657,0.194733 -0.51365,0.2794 -0.20531,0.08502 -0.47307,0.16898 -0.8382,0.210608 -0.73624,0.06809 -1.11125,-0.05997 -1.46297,-0.166864 -0.35172,-0.128411 -0.6992,-0.255411 -1.36172,-0.593725 -0.66252,-0.356305 -0.97578,-0.59055 -1.29399,-0.814211 -0.31573,-0.230717 -0.62724,-0.469194 -1.22625,-1.008592 -0.0155,-0.01411 -0.0289,-0.02611 -0.0441,-0.04022 0.11289,-0.0014 0.24729,-0.01446 0.45014,-0.0822 0.27517,-0.1016 0.3877,-0.203906 0.49636,-0.297392 0.10407,-0.100189 0.21061,-0.198614 0.37677,-0.433917 0.15945,-0.240241 0.20884,-0.381705 0.2607,-0.518583 0.0437,-0.138994 0.0935,-0.285397 0.0822,-0.582083 -0.0194,-0.296334 -0.0882,-0.435681 -0.15275,-0.566561 -0.072,-0.128412 -0.1397,-0.257528 -0.32244,-0.484364 -0.19227,-0.220134 -0.32562,-0.298803 -0.45756,-0.37077 -0.13581,-0.06033 -0.28151,-0.144639 -0.60854,-0.112183 -0.23812,0.04057 -0.36936,0.123825 -0.47589,0.197908 -0.10337,0.07902 -0.19015,0.156634 -0.26212,0.30727 -0.0448,0.116769 -0.0653,0.250472 -0.0406,0.38488 0.0243,0.130528 0.0864,0.244122 0.16898,0.331964 0.0868,0.09596 0.23777,0.196497 0.39441,0.202847 0.15769,0.01235 0.27481,-0.08114 0.26811,-0.16898 -0.006,-0.09419 -0.0818,-0.125589 -0.12136,-0.168628 -0.0459,-0.0056 -0.0861,-0.02469 -0.13052,-0.06103 -0.0416,-0.03634 -0.0984,-0.09631 -0.12207,-0.185913 -0.0233,-0.108656 0.0173,-0.202142 0.0586,-0.273403 0.048,-0.0702 0.12101,-0.162631 0.31503,-0.202495 0.19086,-0.02258 0.30163,0.02858 0.39582,0.07091 0.0945,0.04939 0.19509,0.104775 0.34925,0.273402 0.14782,0.174625 0.19862,0.284692 0.25012,0.389467 0.0466,0.107245 0.0952,0.219781 0.11959,0.457553 0.0176,0.23883 -0.0233,0.357011 -0.0579,0.467783 -0.0416,0.109361 -0.0787,0.219075 -0.19861,0.418747 -0.12594,0.197203 -0.2159,0.278695 -0.30163,0.359128 -0.0903,0.0755 -0.18168,0.157692 -0.40075,0.252942 -0.22084,0.08819 -0.34431,0.09737 -0.4639,0.111478 -0.0529,0.0039 -0.10831,0.0063 -0.17251,0.0049 -0.38453,-0.351719 -0.62477,-0.571147 -0.86219,-0.788458 -0.31186,-0.275519 -0.6156,-0.561975 -1.28482,-1.087261 -0.67804,-0.517878 -1.05657,-0.736247 -1.43757,-0.942269 -0.3817,-0.201436 -0.77188,-0.401109 -1.5942,-0.651934 -0.21273,-0.06667 -0.43145,-0.119944 -0.64629,-0.163689 0.46567,0.01305 0.98213,0.02434 1.899,0.02434 2.09938,0 2.09938,-0.06138 4.19876,-0.06138 2.09903,0 2.09903,0.04339 4.19841,0.04339 2.09868,0 2.09868,-0.07338 4.19771,-0.07338 2.10149,0.0032 2.10149,0.0032 4.20299,0.0064 0.78881,-0.0314 1.26859,-0.0628 1.66899,-0.0254 0.39652,0.03669 0.70979,0.09913 1.05375,0.352072 0.26105,0.187325 0.43815,0.465667 0.46531,0.777875 0.0317,0.309033 -0.0857,0.619478 -0.3429,0.770114 -0.13405,0.08537 -0.33126,0.141464 -0.51929,0.106891 -0.18485,-0.02787 -0.36406,-0.166863 -0.41345,-0.331258 -0.054,-0.156986 0.0487,-0.345017 0.17991,-0.372533 0.14147,-0.03351 0.27023,0.0508 0.32738,0.117122 0.0332,0.03563 0.054,0.05398 0.0713,0.03775 0.0155,-0.01482 0.0307,-0.06914 0.005,-0.146755 -0.0251,-0.0762 -0.091,-0.168981 -0.20426,-0.228248 -0.0568,-0.02928 -0.12523,-0.0515 -0.20602,-0.05433 -0.0818,-0.0035 -0.17392,0.0187 -0.248,0.06033 -0.31256,0.200377 -0.34043,0.576791 -0.22437,0.814916 0.11254,0.2413 0.31962,0.404284 0.57574,0.480131 0.25541,0.0702 0.55245,0.0515 0.84384,-0.105481 0.29422,-0.148166 0.57185,-0.511527 0.59584,-0.963789 0.037,-0.646288 -0.31503,-1.070327 -0.60536,-1.287991"
       style="fill-opacity:1;fill-rule:nonzero;stroke:none;stroke-width:0.352778"
       id="path445"
       class="line" />
    <path
       d="m 116.29601,55.760428 c -0.0141,-0.06914 -0.0183,-0.1397 -0.0483,-0.277283 -0.0536,-0.275873 -0.0589,-0.274814 -0.12912,-0.545748 -0.0409,-0.133702 -0.0614,-0.200377 -0.0819,-0.267405 -0.0198,-0.06668 -0.0409,-0.13335 -0.0935,-0.262467 -0.0617,-0.166864 -0.15275,-0.340078 -0.16157,-0.361244 -0.097,-0.212725 -0.22048,-0.439561 -0.34501,-0.624064 -0.0466,-0.07056 -0.0815,-0.151342 -0.0402,-0.05927 0.025,0.06562 0.0437,0.112889 0.0607,0.156634 0.0709,0.167922 0.0737,0.202141 0.15345,0.423686 0.0751,0.261408 0.0868,0.257175 0.14782,0.521405 0.0342,0.127706 0.0519,0.192617 0.0699,0.259997 0.0176,0.06491 0.0402,0.129117 0.0628,0.261762 0.0416,0.2667 0.007,0.272697 0.0272,0.539044 0.0134,0.132292 0.0208,0.198261 0.0374,0.263878 0.0138,0.06562 0.0335,0.131233 0.0314,0.265289 0.002,0.267405 -0.0409,0.267405 -0.0557,0.531636 -0.0296,0.262114 0.049,0.269169 0.008,0.533753 -0.0176,0.132291 -0.0324,0.197202 -0.049,0.262113 -0.0148,0.06491 -0.0293,0.129823 -0.0586,0.259645 -0.0508,0.191205 -0.0825,0.235655 -0.1337,0.34678 -0.0208,0.09031 -0.043,0.180623 -0.0557,0.274109 -0.0159,0.100189 -0.0448,0.267758 0.097,0.365477 0.0762,0.05256 0.14393,0.04304 0.20249,0.006 0.0494,-0.106539 0.0921,-0.154517 0.15452,-0.346428 0.0878,-0.272344 0.0286,-0.288572 0.0942,-0.563386 0.0272,-0.138642 0.0409,-0.207786 0.0547,-0.277283 0.0148,-0.06915 0.0279,-0.138642 0.0416,-0.279753 0.0318,-0.280811 0.005,-0.282928 0.0183,-0.563739 -0.003,-0.280458 0.0522,-0.280811 0.0272,-0.563033 -0.01,-0.140759 -0.0261,-0.210609 -0.0367,-0.280106"
       style="fill-opacity:1;fill-rule:nonzero;stroke:none;stroke-width:0.352778"
       id="path449"
       class="line" />
  </g>
</svg>
