<?xml version="1.0" encoding="UTF-8" standalone="no"?>
<!-- Created with Inkscape (http://www.inkscape.org/) -->

<svg
   version="1.1"
   id="svg2"
   xml:space="preserve"
   width="660.0498"
   height="1066.6664"
   viewBox="0 0 660.0498 1066.6664"
   sodipodi:docname="popcorn__cup.svg"
   inkscape:version="1.1 (c68e22c387, 2021-05-23)"
   xmlns:inkscape="http://www.inkscape.org/namespaces/inkscape"
   xmlns:sodipodi="http://sodipodi.sourceforge.net/DTD/sodipodi-0.dtd"
   xmlns="http://www.w3.org/2000/svg"
   xmlns:svg="http://www.w3.org/2000/svg"><defs
     id="defs6" /><sodipodi:namedview
     id="namedview4"
     pagecolor="#ffffff"
     bordercolor="#666666"
     borderopacity="1.0"
     inkscape:pageshadow="2"
     inkscape:pageopacity="0"
     inkscape:pagecheckerboard="0"
     showgrid="false"
     inkscape:zoom="0.095950987"
     inkscape:cx="797.28205"
     inkscape:cy="3121.3853"
     inkscape:window-width="1920"
     inkscape:window-height="1001"
     inkscape:window-x="-9"
     inkscape:window-y="-9"
     inkscape:window-maximized="1"
     inkscape:current-layer="g8" /><g
     id="g8"
     inkscape:groupmode="layer"
     inkscape:label="ink_ext_XXXXXX"
     transform="matrix(1.3333333,0,0,-1.3333333,-412.44751,1285.0177)"><g
       id="g10"
       transform="matrix(0.1,0,0,0.1,-4.1453203,2.7635469)"><path
         d="m 6555.57,7801.98 c 50.36,-5.71 102.93,2.37 151.53,26.26 131.52,64.67 184.07,220.48 117.36,348 -59.42,113.56 -193.39,166.31 -314.91,130.81 -2.7,41.28 -13.88,82.71 -34.4,121.95 -80.89,154.6 -275.74,216.37 -435.21,137.95 -159.48,-78.42 -223.18,-267.33 -142.3,-421.94 24.74,-47.29 60.19,-85.86 102.01,-114.42 -74.71,-90.3 -92.73,-218.11 -35.2,-328.05 78.39,-149.84 267.21,-209.68 421.75,-133.69 96.41,47.4 156.68,136.46 169.37,233.13"
         style="fill:#faedd3;fill-opacity:1;fill-rule:nonzero;stroke:none"
         id="path14" /><path
         d="m 6386.2,7568.85 c 96.41,47.4 156.68,136.46 169.37,233.13 50.36,-5.71 102.93,2.37 151.53,26.26 78.84,38.77 129.25,110.28 142.66,188.81 -30.39,-35.25 -68.48,-65.25 -113.4,-87.34 -97.7,-48.04 -207.28,-48.74 -301.12,-11.06 -24.08,-95.67 -89.4,-180.97 -187.09,-229 -83.81,-41.22 -176.39,-47.62 -260.27,-24.82 88.25,-121.64 257.5,-165.23 398.32,-95.98"
         style="fill:#eec36b;fill-opacity:1;fill-rule:nonzero;stroke:none"
         id="path16" /><path
         d="m 5362.04,8330.13 -1.62,-0.31 1.54,2.08 z m 289.12,-273.3 c 24.74,-0.72 49.98,1.55 75.26,7.08 161.17,35.3 262.42,190.14 226.14,345.84 -33.88,145.37 -175.64,240.06 -325.47,223.28 2.3,24.18 0.84,49.08 -4.97,74.03 -29.82,127.97 -161.36,208.18 -293.81,179.17 -132.11,-28.94 -215.2,-155.61 -186.04,-283.22 -85.39,-31.51 -136.15,-119.64 -115.5,-208.23 20.82,-89.36 107,-147.99 198.95,-139.66 -51.05,-55.35 -74.73,-132.8 -56.62,-210.57 29.82,-127.96 161.36,-208.17 293.81,-179.16 99.89,21.86 171.75,99.64 188.25,191.44"
         style="fill:#faedd3;fill-opacity:1;fill-rule:nonzero;stroke:none"
         id="path18" /><path
         d="m 5462.91,7865.39 c 99.89,21.86 171.75,99.64 188.25,191.44 24.74,-0.72 49.98,1.55 75.26,7.08 161.17,35.3 262.42,190.14 226.14,345.84 -7.97,34.22 -21.98,65.57 -40.6,93.37 1.6,-5.33 3.12,-10.72 4.4,-16.21 33.04,-141.83 -59.18,-282.87 -205.99,-315.03 -58.38,-12.79 -116.54,-6.35 -167.57,14.87 27.89,-129.68 -56.88,-257.65 -191.14,-287.06 -15.33,-3.35 -30.63,-5.21 -45.79,-5.8 -4.81,-1.93 -9.64,-3.82 -14.52,-5.55 50.56,-26.59 110.94,-36.23 171.56,-22.95"
         style="fill:#eec36b;fill-opacity:1;fill-rule:nonzero;stroke:none"
         id="path20" /><path
         d="m 8013.26,7058.22 c 0.23,133.11 -110.9,241.18 -248.19,241.39 -119.97,0.19 -220.12,-82.06 -243.65,-191.63 -16.83,117.06 -120.36,207.26 -245.77,207.45 -137.28,0.22 -248.76,-107.52 -248.98,-240.63 -0.01,-2.52 0.11,-5.02 0.18,-7.53 h -0.42 c 0.15,4.62 0.24,7.18 0.24,7.53 0.22,131.03 -109.19,233.65 -244.34,233.86 -135.14,0.21 -244.89,-105.84 -245.1,-236.87 0,-1.26 0.06,-2.51 0.09,-3.76 h -0.29 c 0.08,2.5 0.2,5 0.21,7.52 0.21,133.11 -110.91,241.2 -248.21,241.41 -137.29,0.21 -248.77,-107.53 -248.98,-240.64 -0.01,-2.53 0.1,-5.02 0.17,-7.54 h -0.2 c 0.01,2.26 0.02,3.57 0.02,3.78 0.22,131.02 -109.18,237.42 -244.34,237.62 -135.14,0.21 -244.88,-105.84 -245.09,-236.86 0,-1.28 0.04,-2.52 0.08,-3.77 h -0.29 c 0.09,2.5 0.21,5 0.21,7.52 0.22,133.12 -110.9,241.19 -248.2,241.4 -137.29,0.22 -248.78,-107.52 -248.99,-240.64 -0.01,-2.51 0.11,-5.01 0.17,-7.52 h -0.29 c 0.05,1.25 0.11,2.5 0.11,3.77 0.21,131.02 -109.17,237.43 -244.33,237.62 -135.15,0.22 -244.89,-105.84 -245.1,-236.87 0,-0.24 0.03,-1.54 0.11,-3.77 h -0.31 c 0.08,2.51 0.2,5.01 0.2,7.53 0.23,133.12 -110.9,241.19 -248.2,241.4 -137.29,0.21 -248.78,-107.53 -248.99,-240.64 0,-2.52 0.1,-5.02 0.18,-7.52 h -0.3 c 0.05,1.25 0.12,2.49 0.12,3.77 0.21,131.02 -109.17,237.41 -244.34,237.62 -135.15,0.21 -244.88,-105.84 -245.1,-236.87 -0.02,-17.52 267.9,-4114.8 326.15,-5005.29 l -0.19,-0.03 8.5,-127.17 c 1.81,-27.67 2.78,-42.33 2.78,-42.33 l 419.5,-0.65 -0.07,1.38 419.53,-0.63 c 0.03,-0.9 0.05,-1.38 0.05,-1.38 l 411.74,-0.64 -0.03,1.38 419.54,-0.65 v -1.37 l 419.51,-0.66 0.02,1.4 419.52,-0.67 -0.02,-1.36 419.51,-0.66 0.05,1.38 419.52,-0.64 -0.06,-1.38 411.74,-0.64 0.09,1.39 1.39,-0.02 0.16,2.4 h 2.24 l 199.28,3083.39 -0.13,-0.35 c 72.04,1096.64 135.58,2066.59 135.59,2075.67"
         style="fill:#812124;fill-opacity:1;fill-rule:nonzero;stroke:none"
         id="path22" /><path
         d="m 7694.06,1899.48 -318.97,-285.72 334.72,5158.72 303.41,255.62 -319.16,-5128.62"
         style="fill:#65191a;fill-opacity:1;fill-rule:nonzero;stroke:none"
         id="path24" /><path
         d="m 6685.92,7556.47 c -8.53,56.59 -33.7,111.47 -76.02,157.25 -114.54,123.91 -311,134.33 -438.81,23.27 -113.83,-98.9 -134.71,-260.78 -57,-382.55 -47.06,-15.36 -91.76,-39.99 -131.07,-74.16 -154.97,-134.65 -168,-365.58 -29.11,-515.83 138.88,-150.24 377.1,-162.87 532.05,-28.23 47.41,41.2 81.47,91.43 102.02,145.59 127.18,-54.27 280.78,-35.48 390.98,60.29 150.17,130.47 162.81,354.27 28.22,499.87 -83.96,90.8 -205.35,129.72 -321.26,114.5"
         style="fill:#faedd3;fill-opacity:1;fill-rule:nonzero;stroke:none"
         id="path26" /><path
         d="m 7007.18,7441.97 c -83.96,90.8 -205.35,129.72 -321.26,114.5 -8.53,56.59 -33.7,111.47 -76.02,157.25 -68.65,74.26 -166.74,107.72 -261.83,98.72 50,-22.54 96.23,-55.02 135.37,-97.34 85.08,-92.04 118.84,-211.24 103.38,-324.87 118.15,2.52 236.71,-43.02 321.78,-135.05 73,-78.96 108.26,-177.94 107.05,-276.21 114.52,132.75 114.16,330.34 -8.47,463"
         style="fill:#eec36b;fill-opacity:1;fill-rule:nonzero;stroke:none"
         id="path28" /><path
         d="m 5394.35,6441.54 c 56.7,-15.75 118.65,-16.1 179.11,2.46 163.61,50.23 254.24,219.54 202.43,378.17 -46.14,141.28 -189.74,226.33 -336.19,207.77 4.92,47.9 0.14,97.53 -15.79,146.33 -62.82,192.34 -274.56,298.88 -472.95,237.97 -198.38,-60.91 -308.28,-266.2 -245.46,-458.52 19.22,-58.85 52.44,-109.61 94.89,-150.06 -103.34,-90.02 -148.88,-233.5 -104.21,-370.27 60.88,-186.38 266.08,-289.63 458.33,-230.61 119.91,36.81 206.45,128.07 239.84,236.76"
         style="fill:#faedd3;fill-opacity:1;fill-rule:nonzero;stroke:none"
         id="path30" /><path
         d="m 5154.51,6204.78 c 119.91,36.81 206.45,128.07 239.84,236.76 56.7,-15.75 118.65,-16.1 179.11,2.46 98.06,30.11 169.86,103.02 200.53,190.74 -41.75,-34.91 -91.31,-62.4 -147.21,-79.57 -121.53,-37.3 -247.49,-18.08 -347.93,42.34 -46.26,-105.46 -137.86,-191.48 -259.38,-228.78 -104.26,-32.01 -211.82,-22.44 -303.72,19.08 77.7,-155.82 263.58,-236.81 438.76,-183.03"
         style="fill:#eec36b;fill-opacity:1;fill-rule:nonzero;stroke:none"
         id="path32" /><path
         d="m 3880.65,7130.27 -0.04,-2.12 -2.32,2.54 2.36,-0.42 m 446.15,278.87 c 8.16,30.47 12.54,62.42 12.59,95.34 0.36,210.07 -175.02,380.63 -391.7,380.96 -202.28,0.32 -369,-147.88 -390.54,-338.48 -31.31,9.89 -64.7,15.32 -99.42,15.37 -178.05,0.27 -322.62,-139.45 -322.92,-312.07 -0.27,-172.19 143.11,-312.04 320.53,-313.02 16.77,-115.01 118.58,-203.58 241.87,-203.78 124.34,-0.18 227.11,89.6 242.92,206 58.34,-79.38 153.95,-131.29 262.16,-131.45 178.07,-0.27 322.64,139.44 322.92,312.07 0.21,130.19 -81.73,241.9 -198.41,289.06"
         style="fill:#faedd3;fill-opacity:1;fill-rule:nonzero;stroke:none"
         id="path34" /><path
         d="m 4525.21,7120.08 c 0.21,130.19 -81.73,241.9 -198.41,289.06 8.16,30.47 12.54,62.42 12.59,95.34 0.36,210.07 -175.02,380.63 -391.7,380.96 -47.59,0.08 -93.19,-8.17 -135.42,-23.16 7.53,0.45 15.09,0.75 22.74,0.73 197.36,-0.3 357.11,-155.67 356.8,-347 -0.13,-76.07 -25.63,-146.31 -68.6,-203.39 179.78,-3.16 324.39,-145.48 324.1,-320.46 -0.03,-19.98 -2.04,-39.49 -5.69,-58.43 1.16,-6.55 2.24,-13.08 3.12,-19.64 49.94,54.95 80.35,126.99 80.47,205.99"
         style="fill:#eec36b;fill-opacity:1;fill-rule:nonzero;stroke:none"
         id="path36" /><path
         d="m 5543.29,7203.03 -0.06,-2.11 -2.31,2.53 2.37,-0.42 m 446.13,278.87 c 8.17,30.47 12.54,62.41 12.6,95.34 0.34,210.07 -175.03,380.62 -391.7,380.96 -202.28,0.3 -369,-147.87 -390.54,-338.49 -31.31,9.89 -64.7,15.32 -99.42,15.38 -178.05,0.27 -322.64,-139.45 -322.91,-312.08 -0.29,-172.17 143.1,-312.03 320.52,-313.02 16.77,-115.01 118.57,-203.58 241.86,-203.76 124.35,-0.2 227.11,89.59 242.92,205.99 58.35,-79.4 153.96,-131.29 262.17,-131.45 178.06,-0.28 322.64,139.44 322.91,312.07 0.23,130.2 -81.73,241.89 -198.41,289.06"
         style="fill:#faedd3;fill-opacity:1;fill-rule:nonzero;stroke:none"
         id="path38" /><path
         d="m 6187.83,7192.84 c 0.23,130.2 -81.73,241.89 -198.41,289.06 8.17,30.47 12.54,62.41 12.6,95.34 0.34,210.07 -175.03,380.62 -391.7,380.96 -47.61,0.07 -93.19,-8.17 -135.43,-23.16 7.53,0.45 15.1,0.75 22.74,0.74 197.38,-0.3 357.11,-155.67 356.79,-347.02 -0.11,-76.06 -25.61,-146.31 -68.58,-203.38 179.77,-3.17 324.39,-145.47 324.1,-320.46 -0.03,-19.97 -2.04,-39.49 -5.68,-58.45 1.16,-6.53 2.22,-13.07 3.09,-19.63 49.95,54.95 80.36,127.01 80.48,206"
         style="fill:#eec36b;fill-opacity:1;fill-rule:nonzero;stroke:none"
         id="path40" /><path
         d="m 4600.93,7974.33 -0.54,-1.81 c -0.47,0.9 -0.94,1.78 -1.42,2.68 z m 450.61,143.69 c 14.15,24.56 25.35,51.23 33.06,79.69 49.13,181.58 -62.88,367.39 -250.18,415.01 -174.85,44.47 -353.46,-47.25 -416.39,-207.38 -24.78,15.39 -52.4,27.37 -82.4,35.01 -153.92,39.14 -311.41,-50.09 -351.78,-199.32 -40.28,-148.82 51.21,-301.1 204.41,-340.72 -12.22,-103.11 55.22,-201.94 161.79,-229.04 107.49,-27.33 217.23,27.86 257.95,125.06 32,-81.4 102.62,-147.15 196.16,-170.95 153.92,-39.13 311.42,50.11 351.78,199.32 30.45,112.54 -14.46,227.04 -104.4,293.32"
         style="fill:#faedd3;fill-opacity:1;fill-rule:nonzero;stroke:none"
         id="path42" /><path
         d="m 5155.94,7824.7 c 30.45,112.54 -14.46,227.04 -104.4,293.32 14.15,24.56 25.35,51.23 33.06,79.69 49.13,181.58 -62.88,367.39 -250.18,415.01 -41.14,10.47 -82.48,13.29 -122.49,9.57 6.61,-1.26 13.23,-2.66 19.84,-4.33 170.61,-43.4 272.62,-212.64 227.88,-378.04 -17.78,-65.76 -56.16,-120.93 -106.58,-160.89 154.72,-42.01 246.7,-196.68 205.78,-347.93 -4.68,-17.27 -10.95,-33.7 -18.51,-49.3 -0.51,-5.9 -1.1,-11.8 -1.87,-17.67 55.95,36.62 99,92.28 117.47,160.57"
         style="fill:#eec36b;fill-opacity:1;fill-rule:nonzero;stroke:none"
         id="path44" /><path
         d="m 7630,7401.97 c -18.04,64.25 -61.38,121.81 -125.74,157.42 -128.56,71.15 -292.26,27.77 -365.64,-96.86 -48.46,-82.33 -45.37,-179.51 -0.64,-256.51 -62.53,-31.26 -116.82,-79.74 -154.29,-143.4 -103.15,-175.2 -40.26,-398.33 140.46,-498.32 180.72,-100.01 410.86,-39.04 514,136.17 21.51,36.52 35.69,75.12 43.2,114.25 137.59,-34.88 287.52,22.07 361.38,147.52 88.26,149.92 34.46,340.83 -120.19,426.4 -93.17,51.57 -201.68,53.05 -292.54,13.33"
         style="fill:#faedd3;fill-opacity:1;fill-rule:nonzero;stroke:none"
         id="path46" /><path
         d="m 7630,7401.98 c -18.04,64.24 -61.38,121.8 -125.74,157.41 -93.24,51.6 -204.95,42.91 -287.31,-13.29 67.06,15.88 140.26,7.94 204.93,-27.85 100.9,-55.82 152.29,-163.34 139.02,-268.55 84.59,51.71 195.09,57.67 288,6.25 134.15,-74.23 180.83,-239.84 104.26,-369.9 -8.18,-13.88 -17.49,-26.73 -27.63,-38.63 47.24,26.73 88.12,65.43 117.19,114.81 88.27,149.93 34.47,340.84 -120.18,426.41 -93.17,51.57 -201.68,53.05 -292.54,13.34"
         style="fill:#eec36b;fill-opacity:1;fill-rule:nonzero;stroke:none"
         id="path48" /><path
         d="m 4874.25,6690.87 c 56.71,-15.73 118.66,-16.07 179.11,2.49 163.61,50.22 254.25,219.52 202.44,378.16 -46.15,141.28 -189.75,226.35 -336.19,207.77 4.91,47.91 0.15,97.53 -15.8,146.33 -62.82,192.33 -274.56,298.88 -472.95,237.98 -198.38,-60.92 -308.27,-266.2 -245.45,-458.54 19.22,-58.83 52.43,-109.6 94.88,-150.04 -103.34,-90.04 -148.88,-233.51 -104.2,-370.29 60.87,-186.37 266.08,-289.63 458.32,-230.6 119.93,36.81 206.45,128.07 239.84,236.74"
         style="fill:#faedd3;fill-opacity:1;fill-rule:nonzero;stroke:none"
         id="path50" /><path
         d="m 4634.41,6454.13 c 119.93,36.81 206.45,128.07 239.84,236.74 56.71,-15.73 118.66,-16.07 179.11,2.49 98.07,30.1 169.87,103 200.53,190.73 -41.75,-34.92 -91.31,-62.4 -147.21,-79.56 -121.52,-37.32 -247.49,-18.09 -347.93,42.32 -46.26,-105.45 -137.86,-191.46 -259.37,-228.78 -104.27,-32.01 -211.84,-22.43 -303.73,19.08 77.71,-155.82 263.59,-236.8 438.76,-183.02"
         style="fill:#eec36b;fill-opacity:1;fill-rule:nonzero;stroke:none"
         id="path52" /><path
         d="m 7380.24,1693.23 h -0.02 l 13.12,202.95 h 0.07 l -13.17,-202.95"
         style="fill:#e5e5e5;fill-opacity:1;fill-rule:nonzero;stroke:none"
         id="path54" /><path
         d="m 7393.41,1896.18 h -0.07 l 181.01,2800.98 c 0,0 -0.04,-0.11 -0.13,-0.33 30.97,471.42 60.38,919.59 83.83,1277.91 L 7393.41,1896.18 m 316.4,4876.3 c 0.02,12.52 -0.94,24.81 -2.82,36.82 13.73,-2.34 27.55,-3.79 41.33,-4.38 l -38.51,-32.44"
         style="fill:#741e20;fill-opacity:1;fill-rule:nonzero;stroke:none"
         id="path56" /><path
         d="m 7424.99,1693.16 -44.75,0.07 13.17,202.95 264.64,4078.56 c 31.11,475.17 51.76,792.56 51.76,797.74 v 0 l 38.51,32.44 c 4.06,-0.17 8.1,-0.27 12.16,-0.3 -13.64,-213.97 -69.84,-1071.46 -132.45,-2024.65 l 0.12,0.35 -199.27,-3083.4 h -2.25 l -0.15,-2.37 h -1.39 l -0.1,-1.39"
         style="fill:#5b1717;fill-opacity:1;fill-rule:nonzero;stroke:none"
         id="path58" /><path
         d="m 6233.84,6782.29 h -0.26 c 0.09,2.5 0.21,5 0.21,7.53 0.14,87.04 -47.32,163.38 -118.59,205.85 21.31,25.28 38.61,53.85 50.98,84.81 57.64,-33.34 100.18,-88.65 115.34,-153.99 -29.92,-39.28 -47.65,-87.85 -47.73,-140.43 -0.01,-1.26 0.02,-2.52 0.05,-3.77"
         style="fill:#e1d5bd;fill-opacity:1;fill-rule:nonzero;stroke:none"
         id="path60" /><path
         d="m 6115.2,6995.67 c -0.02,0.01 -0.05,0.03 -0.07,0.04 21.31,25.28 38.64,53.84 51.02,84.79 0.01,-0.01 0.02,-0.01 0.03,-0.02 -12.37,-30.96 -29.67,-59.53 -50.98,-84.81"
         style="fill:#e1d5bd;fill-opacity:1;fill-rule:nonzero;stroke:none"
         id="path62" /><path
         d="m 5752.56,6875.38 c -6.71,11.97 -14.19,23.37 -22.37,34.17 10.42,-4.68 21.15,-8.84 32.14,-12.44 -3.61,-7.05 -6.87,-14.31 -9.77,-21.73 m -144.84,130.26 c -1.85,0.82 -3.71,1.61 -5.57,2.39 0.21,1.39 0.41,2.79 0.6,4.19 1.63,-2.22 3.28,-4.4 4.97,-6.58"
         style="fill:#741e20;fill-opacity:1;fill-rule:nonzero;stroke:none"
         id="path64" /><path
         d="m 5736.78,6783.05 h -0.22 c 0.01,2.3 0.02,3.55 0.02,3.76 0.1,56.5 -20.18,108.4 -54.11,149.2 15.03,-10.07 30.98,-18.94 47.72,-26.46 8.18,-10.8 15.66,-22.2 22.37,-34.17 -10.28,-26.37 -15.92,-54.94 -15.97,-84.79 0,-2.54 0.11,-5.03 0.19,-7.54 m -114.05,204.66 c -7.1,4.36 -14.45,8.38 -22.02,12.03 0.53,2.75 1.01,5.51 1.44,8.29 1.86,-0.78 3.72,-1.57 5.57,-2.39 4.78,-6.15 9.79,-12.14 15.01,-17.93"
         style="fill:#e1d5bd;fill-opacity:1;fill-rule:nonzero;stroke:none"
         id="path66" /><path
         d="m 5762.33,6897.11 c -10.99,3.6 -21.72,7.76 -32.14,12.44 -16.74,7.52 -32.69,16.39 -47.72,26.46 -16.83,20.23 -37.02,37.73 -59.74,51.7 -5.22,5.79 -10.23,11.78 -15.01,17.93 -1.69,2.18 -3.34,4.36 -4.97,6.58 -0.19,-1.4 -0.39,-2.8 -0.6,-4.19 -0.43,-2.78 -0.91,-5.54 -1.44,-8.29 -32.67,15.76 -69.49,24.64 -108.45,24.7 -0.13,0 -0.27,0 -0.4,0 -69.1,0 -131.52,-27.77 -176.03,-72.44 34.34,90.81 124.3,155.6 229.83,155.6 0.13,0 0.27,0 0.4,0 113.79,-0.18 209.33,-75.62 236.55,-177.67 -7.62,-10.36 -14.4,-21.32 -20.28,-32.82"
         style="fill:#e1d5bd;fill-opacity:1;fill-rule:nonzero;stroke:none"
         id="path68" /><path
         d="m 5247.22,6783.81 h -0.27 c 0.09,2.5 0.21,5 0.21,7.53 0.02,14.94 -1.36,29.56 -4.02,43.76 2.69,-1.43 5.42,-2.81 8.17,-4.14 -2.7,-14.06 -4.13,-28.57 -4.15,-43.39 0,-1.26 0.02,-2.51 0.06,-3.76"
         style="fill:#e1d5bd;fill-opacity:1;fill-rule:nonzero;stroke:none"
         id="path70" /><path
         d="m 5251.31,6830.96 c -2.75,1.33 -5.48,2.71 -8.17,4.14 -0.96,5.13 -2.09,10.21 -3.38,15.22 21.4,43.26 32.24,91.49 30.42,140.81 11.12,-19.54 19.53,-40.74 24.72,-63.12 -21.5,-28.22 -36.69,-61.2 -43.59,-97.05"
         style="fill:#e1d5bd;fill-opacity:1;fill-rule:nonzero;stroke:none"
         id="path72" /><path
         d="m 3342.59,6955.05 c 0.28,0.73 0.56,1.47 0.84,2.2 0.34,-0.12 0.67,-0.24 1.01,-0.37 -0.62,-0.61 -1.24,-1.22 -1.85,-1.83"
         style="fill:#e5e5e5;fill-opacity:1;fill-rule:nonzero;stroke:none"
         id="path74" /><path
         d="m 3763.52,6786.09 -0.26,0.01 c 0.04,1.24 0.07,2.5 0.08,3.76 0.21,131.02 -109.18,237.42 -244.34,237.62 -0.12,0 -0.26,0 -0.39,0 -68.14,0 -129.79,-27 -174.17,-70.6 -0.34,0.13 -0.67,0.25 -1.01,0.37 34.96,89.66 124.31,153.39 228.98,153.39 0.13,0 0.27,0 0.4,0 113.79,-0.18 209.32,-75.62 236.55,-177.67 -28.9,-39.31 -45.93,-87.4 -46.02,-139.35 0,-2.53 0.11,-5.03 0.18,-7.53"
         style="fill:#e1d5bd;fill-opacity:1;fill-rule:nonzero;stroke:none"
         id="path76" /><path
         d="m 6723.22,6789.07 c 0.04,22.01 -3.02,43.23 -8.78,63.29 5.79,-0.32 11.59,-0.51 17.39,-0.57 -5.58,-19.99 -8.57,-41.02 -8.61,-62.72 v 0"
         style="fill:#741e20;fill-opacity:1;fill-rule:nonzero;stroke:none"
         id="path78" /><path
         d="m 6731.83,6851.79 c -5.8,0.06 -11.6,0.25 -17.39,0.57 -28.5,99.33 -123.11,170.39 -235.55,170.56 -0.13,0 -0.27,0 -0.39,0 -69.12,0 -131.54,-27.76 -176.05,-72.45 34.33,90.84 124.3,155.61 229.83,155.61 0.13,0 0.27,0 0.4,0 114.76,-0.17 210.96,-74.18 237.24,-176.73 -17.17,-23.12 -30.21,-49.31 -38.09,-77.56"
         style="fill:#e1d5bd;fill-opacity:1;fill-rule:nonzero;stroke:none"
         id="path80" /><path
         d="m 4198.85,6952.16 c -45.47,50.24 -112.15,81.99 -186.52,82.1 -0.12,0 -0.26,0 -0.38,0 -70.5,0 -134.16,-28.45 -179.42,-74.18 35.1,91.89 126.29,157.33 233.21,157.33 0.13,0 0.27,0 0.39,0 76.16,-0.11 144.25,-33.4 189.76,-85.75 -22.73,-23.92 -41.91,-50.72 -57.04,-79.5"
         style="fill:#e1d5bd;fill-opacity:1;fill-rule:nonzero;stroke:none"
         id="path82" /><path
         d="m 6792.42,6955.54 c 31.66,82.88 108.98,144.26 202.31,155.48 2.39,-7.06 4.58,-14.16 6.56,-21.31 -6.21,-8.7 -12.09,-17.73 -17.6,-27.09 -6.37,-10.82 -12.11,-21.83 -17.22,-32.97 -68.37,-1.39 -129.94,-29.55 -174.05,-74.11"
         style="fill:#e1d5bd;fill-opacity:1;fill-rule:nonzero;stroke:none"
         id="path84" /><path
         d="m 7001.29,7089.71 c -1.98,7.15 -4.17,14.25 -6.56,21.31 8.04,0.96 16.2,1.56 24.46,1.76 -6.23,-7.4 -12.21,-15.1 -17.9,-23.07"
         style="fill:#d6af60;fill-opacity:1;fill-rule:nonzero;stroke:none"
         id="path86" /><path
         d="m 5805.79,6957.04 c 35.08,91.87 126.26,157.33 233.17,157.33 0.14,0 0.28,0 0.42,0 23.6,-0.03 46.43,-3.26 68.05,-9.24 1.68,-13.18 2.53,-26.59 2.51,-40.21 -0.03,-19.97 -2.04,-39.49 -5.68,-58.45 0.3,-1.7 0.6,-3.41 0.89,-5.12 -35.46,18.97 -76.21,29.8 -119.57,29.87 -0.12,0 -0.26,0 -0.39,0 -70.5,0 -134.15,-28.45 -179.4,-74.18"
         style="fill:#e1d5bd;fill-opacity:1;fill-rule:nonzero;stroke:none"
         id="path88" /><path
         d="m 6723.41,6781.53 h -0.42 c 0.15,4.63 0.23,7.19 0.23,7.54 -0.01,-2.53 0.1,-5.03 0.19,-7.54"
         style="fill:#741e20;fill-opacity:1;fill-rule:nonzero;stroke:none"
         id="path90" /><path
         d="m 6115.13,6995.71 c -3.28,1.96 -6.61,3.83 -9.98,5.64 -0.29,1.71 -0.59,3.42 -0.89,5.12 3.64,18.96 5.65,38.48 5.68,58.45 0.02,13.62 -0.83,27.03 -2.51,40.21 20.82,-5.77 40.52,-14.11 58.72,-24.63 -12.38,-30.95 -29.71,-59.51 -51.02,-84.79"
         style="fill:#d6af60;fill-opacity:1;fill-rule:nonzero;stroke:none"
         id="path92" /><path
         d="m 7760.48,6804.62 c -4.06,0.03 -8.1,0.13 -12.16,0.3 -13.78,0.59 -27.6,2.04 -41.33,4.38 -18.09,115.66 -120.99,204.38 -245.38,204.58 -0.13,0 -0.27,0 -0.4,0 -70.42,0 -134,-28.41 -179.23,-74.05 35.11,91.8 126.17,157.2 233.02,157.2 0.13,0 0.28,0 0.41,0 137.3,-0.2 248.43,-108.27 248.21,-241.39 0,-1.18 -1.09,-18.82 -3.14,-51.02 m -542.5,17.93 c -16.96,116.92 -120.47,206.95 -245.77,207.15 -0.13,0 -0.28,0 -0.41,0 -1.78,0 -3.56,-0.02 -5.33,-0.05 5.11,11.14 10.85,22.15 17.22,32.97 5.51,9.36 11.39,18.39 17.6,27.09 5.69,7.97 11.67,15.67 17.9,23.07 2.14,0.05 4.28,0.08 6.43,0.08 0.12,0 0.27,0 0.4,0 118.42,-0.19 217.33,-80.65 242.15,-188.19 -24.42,-29.17 -41.95,-63.99 -50.19,-102.12"
         style="fill:#e1d5bd;fill-opacity:1;fill-rule:nonzero;stroke:none"
         id="path94" /><path
         d="m 4260.64,6785.32 -0.31,0.01 c 0.08,2.5 0.2,5 0.21,7.54 0.1,61.01 -23.2,116.77 -61.69,159.29 15.13,28.78 34.31,55.58 57.04,79.5 25.21,-29 43.5,-63.85 52.38,-102.13 -29.93,-39.29 -47.66,-87.85 -47.74,-140.44 0,-0.24 0.03,-1.51 0.11,-3.77 m 486.77,37.8 c -17.17,114.57 -118.81,202.66 -241.78,202.85 -0.11,0 -0.25,0 -0.36,0 -69.11,0 -131.55,-27.78 -176.07,-72.46 34.34,90.82 124.3,155.61 229.83,155.61 0.13,0 0.27,0 0.4,0 113.8,-0.17 209.33,-75.62 236.55,-177.67 -20.31,-27.62 -34.74,-59.58 -41.57,-94.16 -2.24,-4.76 -4.58,-9.49 -7,-14.17 m 492.35,27.2 c -0.01,0.03 -0.01,0.05 -0.02,0.08 5.4,10.93 10.13,22.19 14.15,33.69 -6.37,-5.33 -12.92,-10.48 -19.66,-15.46 -33.06,95.25 -125.86,163.94 -235.27,164.1 -0.12,0 -0.27,0 -0.4,0 -70.49,0 -134.14,-28.45 -179.4,-74.17 35.09,91.88 126.26,157.33 233.17,157.33 0.13,0 0.29,0 0.42,0 93.69,-0.14 175.18,-50.49 217.43,-124.76 1.82,-49.32 -9.02,-97.55 -30.42,-140.81"
         style="fill:#e1d5bd;fill-opacity:1;fill-rule:nonzero;stroke:none"
         id="path96" /><path
         d="m 4750.15,6784.57 h -0.26 c 0.04,1.25 0.07,2.5 0.07,3.77 0.02,11.81 -0.85,23.43 -2.55,34.78 2.42,4.68 4.76,9.41 7,14.17 -2.89,-14.64 -4.42,-29.74 -4.44,-45.19 -0.01,-2.52 0.1,-5.02 0.18,-7.53 m 489.59,65.83 c -1.59,6.17 -3.43,12.26 -5.51,18.23 6.74,4.98 13.29,10.13 19.66,15.46 -4.02,-11.5 -8.75,-22.76 -14.15,-33.69"
         style="fill:#d6af60;fill-opacity:1;fill-rule:nonzero;stroke:none"
         id="path98" /><path
         d="m 7220.19,6780.77 c 0.1,2.51 0.23,5 0.23,7.53 0.21,133.11 -110.92,241.18 -248.21,241.4 -137.3,0.21 -248.77,-107.52 -248.99,-240.63 -0.01,-2.53 0.1,-5.03 0.19,-7.54 l -489.83,0.76 c 0.09,2.5 0.21,5 0.21,7.53 0.21,133.11 -110.91,241.18 -248.21,241.4 -137.29,0.2 -248.76,-107.53 -248.99,-240.63 0,-2.54 0.11,-5.03 0.19,-7.54 l -489.83,0.76 c 0.09,2.5 0.21,5 0.21,7.53 0.22,133.1 -110.91,241.19 -248.2,241.39 -137.29,0.21 -248.77,-107.53 -248.99,-240.63 -0.01,-2.52 0.1,-5.02 0.18,-7.53 l -489.82,0.76 c 0.08,2.5 0.2,5 0.21,7.54 0.22,133.1 -110.91,241.19 -248.21,241.39 -137.29,0.21 -248.77,-107.53 -248.99,-240.64 0,-2.53 0.11,-5.03 0.18,-7.53 l -483.18,0.74 339.21,-5169.67 3753.13,-5.78 331.31,5168.65 -483.8,0.74"
         style="fill:#fffce3;fill-opacity:1;fill-rule:nonzero;stroke:none"
         id="path100" /><path
         d="m 3763.13,6782.33 c 0.08,2.5 0.2,5 0.21,7.53 0.21,131.02 -109.18,237.42 -244.34,237.62 -135.14,0.21 -244.88,-105.84 -245.09,-236.87 -0.04,-19.65 337.23,-5174.81 337.23,-5174.81 l 419.5,-0.65 -267.51,5167.18"
         style="fill:#a66963;fill-opacity:1;fill-rule:nonzero;stroke:none"
         id="path102" /><path
         d="m 4749.76,6780.81 c 0.08,2.51 0.19,5 0.2,7.53 0.21,131.02 -109.18,237.42 -244.33,237.63 -135.15,0.19 -244.89,-105.86 -245.1,-236.88 -0.03,-17.14 189.63,-5174.6 189.63,-5174.6 l 411.73,-0.62 -112.13,5166.94"
         style="fill:#a66963;fill-opacity:1;fill-rule:nonzero;stroke:none"
         id="path104" /><path
         d="m 5492.26,7024.44 c -135.15,0.21 -244.89,-105.84 -245.1,-236.87 0,-2.53 0.09,-5.02 0.18,-7.53 l 34.07,-5166.82 419.51,-0.64 c 0,0 35.64,5159.63 35.66,5174.23 0.23,131.03 -109.17,237.42 -244.32,237.63"
         style="fill:#a66963;fill-opacity:1;fill-rule:nonzero;stroke:none"
         id="path106" /><path
         d="m 6478.89,7022.92 c -135.16,0.21 -244.89,-105.83 -245.1,-236.86 -0.01,-2.54 0.1,-5.02 0.17,-7.54 l -113.53,-5166.59 419.51,-0.65 c 0,0 183.25,5160.98 183.28,5177.79 0.21,131.02 -109.18,233.65 -244.33,233.85"
         style="fill:#a66963;fill-opacity:1;fill-rule:nonzero;stroke:none"
         id="path108" /><path
         d="m 7709.81,6772.48 c 0.22,133.11 -110.89,241.18 -248.2,241.4 -135.98,0.21 -246.59,-105.5 -248.88,-236.87 L 6959.44,1610.64 7371.18,1610 c 0,0 338.61,5141.51 338.63,5162.48"
         style="fill:#a66963;fill-opacity:1;fill-rule:nonzero;stroke:none"
         id="path110" /><path
         d="m 5711.73,3178.45 c 4.69,679.59 10.15,1470.95 14.76,2139.27 167.98,-17.62 327.23,-54.03 473.04,-106.05 L 6156.88,3270.7 c -138.35,-45.46 -288.05,-77.08 -445.15,-92.25 m -440.65,1.17 c -157.3,16.04 -306.96,48.55 -445.23,94.91 l -42,1935.33 c 145.73,52.52 305,89.37 473.14,107.37 l 14.09,-2137.61 m -890.17,319.24 c -269.87,194.94 -435.76,460.33 -435.29,752.52 0.45,271.42 144.37,519.25 381.65,708.7 17.37,-473.66 36.14,-984.77 53.64,-1461.22"
         style="fill:#e5e2cc;fill-opacity:1;fill-rule:nonzero;stroke:none"
         id="path112" /><path
         d="m 4825.85,3274.53 c -167.14,56.05 -317.58,132.32 -444.94,224.33 -17.5,476.45 -36.27,987.56 -53.64,1461.22 127.72,101.98 282.56,187.06 456.58,249.78 l 42,-1935.33"
         style="fill:#a32127;fill-opacity:1;fill-rule:nonzero;stroke:none"
         id="path114" /><path
         d="m 5497.38,3168.19 c -1.2,0 -2.28,0 -3.48,0 -75.66,0.12 -150.07,4.02 -222.82,11.43 l -14.09,2137.61 c 77.26,8.28 156.36,12.56 236.94,12.56 1.2,0 2.31,0 3.51,0 77.85,-0.12 154.29,-4.23 229.05,-12.07 -4.61,-668.32 -10.07,-1459.68 -14.76,-2139.27 -70.08,-6.77 -141.6,-10.26 -214.35,-10.26"
         style="fill:#a32127;fill-opacity:1;fill-rule:nonzero;stroke:none"
         id="path116" /><path
         d="m 6606.77,3494.6 c 16.99,478.77 35.18,992.05 52.04,1467.95 241.17,-190.95 387.35,-441.64 386.9,-715.94 -0.48,-292.63 -167.72,-557.82 -438.94,-752.01"
         style="fill:#e5e2cc;fill-opacity:1;fill-rule:nonzero;stroke:none"
         id="path118" /><path
         d="m 6156.88,3270.7 42.65,1940.97 c 174.95,-62.4 330.61,-147.24 459.28,-249.12 -16.86,-475.9 -35.05,-989.18 -52.04,-1467.95 -128.75,-92.19 -280.97,-168.38 -449.89,-223.9"
         style="fill:#a32127;fill-opacity:1;fill-rule:nonzero;stroke:none"
         id="path120" /><path
         d="m 7036.58,4314.4 c -0.97,-596.91 -695.74,-1079.73 -1551.81,-1078.41 -856.07,1.32 -1549.25,486.29 -1548.28,1083.19 0.98,596.9 695.76,1079.73 1551.82,1078.42 856.07,-1.32 1549.25,-486.29 1548.27,-1083.2"
         style="fill:#ebb95c;fill-opacity:1;fill-rule:nonzero;stroke:none"
         id="path122" /><path
         d="m 7375.09,1613.76 h -2.26 l 5.09,79.48 2.3,-0.01 -5.13,-79.47"
         style="fill:#e5e5e5;fill-opacity:1;fill-rule:nonzero;stroke:none"
         id="path124" /><path
         d="m 7380.22,1693.23 -2.3,0.01 13.01,202.94 h 2.41 l -13.12,-202.95"
         style="fill:#cecece;fill-opacity:1;fill-rule:nonzero;stroke:none"
         id="path126" /><path
         d="m 7393.34,1896.18 h -2.41 l 33.78,526.93 c 40.2,610.78 97.1,1475.81 149.51,2273.72 0.09,0.22 0.13,0.33 0.13,0.33 L 7393.34,1896.18"
         style="fill:#681b1d;fill-opacity:1;fill-rule:nonzero;stroke:none"
         id="path128" /><path
         d="m 7372.83,1613.76 h -1.4 c 2.47,37.47 23.19,352.09 53.28,809.35 l -33.78,-526.93 -13.01,-202.94 -5.09,-79.48 m -413.2,0.64 -419.55,0.64 c 2.03,57.43 27.12,764.03 58.1,1637.41 186.09,188.47 341.05,375.82 468.73,550.25 L 6959.63,1614.4 m -839.12,1.29 -419.57,0.64 c 0.28,40.54 2.8,404.71 6.37,922.5 158.59,99.22 305.14,203.43 440.3,310.21 l -27.1,-1233.35 m -839.13,1.29 -419.57,0.65 -10.69,492.92 c 149.14,57.96 291.15,120.94 425.77,187.73 l 4.49,-681.3 m -831.36,1.28 -419.57,0.65 -12.54,242.14 c 145.08,31.58 284.82,67.71 419.22,107.78 7.36,-200.36 12.04,-327.57 12.89,-350.57"
         style="fill:#e5e2cc;fill-opacity:1;fill-rule:nonzero;stroke:none"
         id="path130" /><path
         d="m 3608.56,1655.27 -8.8,130 c 0.19,0.03 0.11,0.02 0.29,0.05 3.75,-57.27 6.63,-101.24 8.51,-130.05"
         style="fill:#e5e5e5;fill-opacity:1;fill-rule:nonzero;stroke:none"
         id="path132" /><path
         d="m 4030.45,1618.91 -419.47,0.64 -2.42,35.72 c -1.88,28.81 -4.76,72.78 -8.51,130.05 143.94,21.03 283.38,46.46 417.86,75.73 l 12.54,-242.14"
         style="fill:#a32127;fill-opacity:1;fill-rule:nonzero;stroke:none"
         id="path134" /><path
         d="m 4861.81,1617.63 -411.79,0.63 c -0.85,23 -5.53,150.21 -12.89,350.57 144.05,42.95 281.79,90.36 413.99,141.72 l 10.69,-492.92"
         style="fill:#a32127;fill-opacity:1;fill-rule:nonzero;stroke:none"
         id="path136" /><path
         d="m 5700.94,1616.33 -419.56,0.65 -4.49,681.3 c 152.5,75.66 295.76,156.29 430.42,240.55 -3.57,-517.79 -6.09,-881.96 -6.37,-922.5"
         style="fill:#a32127;fill-opacity:1;fill-rule:nonzero;stroke:none"
         id="path138" /><path
         d="m 6540.08,1615.04 -419.57,0.65 27.1,1233.35 c 167.08,131.98 316.86,267.98 450.57,403.41 -30.98,-873.38 -56.07,-1579.98 -58.1,-1637.41"
         style="fill:#a32127;fill-opacity:1;fill-rule:nonzero;stroke:none"
         id="path140" /><path
         d="m 7371.43,1613.76 -411.8,0.64 107.28,2188.3 c 360.54,492.55 502.61,881.1 507.31,894.13 -52.41,-797.91 -109.31,-1662.94 -149.51,-2273.72 -30.09,-457.26 -50.81,-771.88 -53.28,-809.35"
         style="fill:#a32127;fill-opacity:1;fill-rule:nonzero;stroke:none"
         id="path142" /><path
         d="m 7067.11,7510.16 c 10.66,-48.21 35.54,-94.03 74.65,-131.09 105.83,-100.25 275.46,-98.35 378.87,4.26 92.1,91.38 100.54,231.8 26.52,332.25 39.57,15.82 76.57,39.5 108.39,71.06 125.39,124.41 123,323.79 -5.31,445.36 -128.33,121.56 -333.99,119.26 -459.38,-5.15 -38.36,-38.06 -64.71,-83.15 -79.2,-130.88 -112.59,39.65 -243.64,14.98 -332.8,-73.49 -121.52,-120.55 -119.21,-313.79 5.14,-431.59 77.56,-73.48 184.29,-100.25 283.12,-80.73"
         style="fill:#faedd3;fill-opacity:1;fill-rule:nonzero;stroke:none"
         id="path144" /><path
         d="m 6783.99,7590.89 c 77.56,-73.48 184.29,-100.25 283.12,-80.73 10.66,-48.21 35.54,-94.03 74.65,-131.09 63.43,-60.1 149.77,-83.43 231.05,-70.43 -44.34,16.61 -86.02,42 -122.18,76.26 -78.61,74.45 -114.67,175.16 -108.05,273.74 -101.51,-8.7 -206.17,23.92 -284.79,98.39 -67.44,63.9 -103.6,147.09 -108.33,231.71 -90.71,-120.55 -78.78,-290.5 34.53,-397.85"
         style="fill:#eec36b;fill-opacity:1;fill-rule:nonzero;stroke:none"
         id="path146" /><path
         d="m 6617.86,8693.39 c 12.54,-41.54 37.38,-80.11 74.08,-110.09 99.34,-81.17 247.74,-68.89 331.45,27.4 74.57,85.79 72.62,209.26 1.12,292.59 33.61,16.32 64.42,39.36 90.17,69 101.51,116.76 86.17,291.2 -34.28,389.6 -120.45,98.43 -300.37,83.54 -401.88,-33.22 -31.06,-35.74 -51.12,-76.86 -60.64,-119.56 -101.22,27.68 -214.32,-2.12 -286.5,-85.15 -98.37,-113.16 -83.5,-282.21 33.21,-377.58 72.81,-59.48 168.05,-76.24 253.27,-52.99"
         style="fill:#faedd3;fill-opacity:1;fill-rule:nonzero;stroke:none"
         id="path148" /><path
         d="m 6364.59,8746.38 c 72.81,-59.48 168.05,-76.24 253.27,-52.99 12.54,-41.54 37.38,-80.11 74.08,-110.09 59.54,-48.65 136.7,-63.69 207,-47.24 -39.94,11.79 -78.12,31.41 -112.06,59.14 -73.77,60.28 -112.06,146.18 -112.81,232.93 -88.31,-13.96 -182.13,8.05 -255.91,68.34 -63.3,51.72 -100.49,122.31 -110.27,196.09 -71.4,-111.22 -49.65,-259.28 56.7,-346.18"
         style="fill:#eec36b;fill-opacity:1;fill-rule:nonzero;stroke:none"
         id="path150" /><path
         d="m 3850.78,9047.97 -1.62,-0.32 1.53,2.1 z m 289.12,-273.3 c 24.74,-0.72 49.98,1.54 75.26,7.08 161.17,35.3 262.42,190.13 226.14,345.85 -33.87,145.36 -175.64,240.06 -325.47,223.27 2.3,24.17 0.84,49.09 -4.97,74.03 -29.82,127.95 -161.35,208.17 -293.8,179.17 -132.12,-28.93 -215.2,-155.6 -186.04,-283.22 -85.39,-31.5 -136.16,-119.64 -115.51,-208.23 20.82,-89.36 107.01,-147.99 198.95,-139.65 -51.05,-55.35 -74.73,-132.81 -56.62,-210.58 29.82,-127.96 161.35,-208.18 293.81,-179.17 99.89,21.88 171.75,99.64 188.25,191.45"
         style="fill:#faedd3;fill-opacity:1;fill-rule:nonzero;stroke:none"
         id="path152" /><path
         d="m 3951.65,8583.22 c 99.89,21.88 171.75,99.64 188.25,191.45 24.74,-0.72 49.98,1.54 75.26,7.08 161.17,35.3 262.42,190.13 226.14,345.85 -7.97,34.2 -21.98,65.56 -40.6,93.36 1.61,-5.34 3.13,-10.72 4.4,-16.21 33.04,-141.83 -59.18,-282.87 -205.99,-315.02 -58.37,-12.78 -116.54,-6.36 -167.57,14.86 27.89,-129.68 -56.88,-257.65 -191.14,-287.06 -15.32,-3.35 -30.62,-5.21 -45.79,-5.8 -4.81,-1.94 -9.65,-3.81 -14.52,-5.54 50.56,-26.59 110.95,-36.24 171.56,-22.97"
         style="fill:#eec36b;fill-opacity:1;fill-rule:nonzero;stroke:none"
         id="path154" /></g></g></svg>
