<?xml version="1.0" encoding="UTF-8" standalone="no"?>
<!-- Created with Inkscape (http://www.inkscape.org/) -->

<svg
   version="1.1"
   id="svg2"
   width="36.490711"
   height="36.440071"
   viewBox="0 0 36.490711 36.440071"
   sodipodi:docname="shirt__btn.svg"
   inkscape:version="1.1 (c68e22c387, 2021-05-23)"
   xmlns:inkscape="http://www.inkscape.org/namespaces/inkscape"
   xmlns:sodipodi="http://sodipodi.sourceforge.net/DTD/sodipodi-0.dtd"
   xmlns="http://www.w3.org/2000/svg"
   xmlns:svg="http://www.w3.org/2000/svg">
  <style
     id="style724">
line,#path453 { 
    fill:#2c4373 !important;
}
</style>
  <defs
     id="defs6" />
  <sodipodi:namedview
     id="namedview4"
     pagecolor="#ffffff"
     bordercolor="#666666"
     borderopacity="1.0"
     inkscape:pageshadow="2"
     inkscape:pageopacity="0.0"
     inkscape:pagecheckerboard="0"
     showgrid="false"
     inkscape:zoom="11.032609"
     inkscape:cx="-0.18128078"
     inkscape:cy="23.430541"
     inkscape:window-width="1920"
     inkscape:window-height="1001"
     inkscape:window-x="-9"
     inkscape:window-y="-9"
     inkscape:window-maximized="1"
     inkscape:current-layer="g8" />
  <g
     inkscape:groupmode="layer"
     inkscape:label="Image"
     id="g8"
     transform="translate(-0.25687735,-0.10751832)">
    <path
       style="stroke-width:0.133333"
       d="M 16.290641,36.492895 C 11.955889,35.837092 8.4634378,34.122339 5.5705488,31.22945 2.2081268,27.867029 0.44155477,23.782754 0.27057077,18.976026 0.12943477,15.008378 1.0771118,11.571989 3.2151108,8.2987688 c 1.070451,-1.638831 3.334397,-3.965742 4.881279,-5.017036 2.0575462,-1.398352 4.5305482,-2.43010742 7.0249312,-2.93085512 1.620002,-0.325216 5.122885,-0.3243163 6.747889,0.00173 7.228609,1.45038602 12.793414,6.83007102 14.437017,13.95674932 1.207507,5.235762 -0.104853,11.091835 -3.419989,15.26083 -2.716725,3.416453 -6.218884,5.619958 -10.528931,6.624638 -1.108272,0.258342 -5.049362,0.451974 -6.066666,0.298067 z m -1.4,-2.316923 C 9.9319938,32.758295 5.8097038,28.795194 4.2345688,23.931402 c -0.582641,-1.799111 -0.743928,-2.859008 -0.743928,-4.888709 0,-2.029281 0.161302,-3.089637 0.743453,-4.887257 C 5.9007008,9.0091348 10.215886,5.0212778 15.46767,3.7739818 c 7.197068,-1.7093 14.455169,1.699812 17.804936,8.3629342 0.475186,0.945207 1.007357,2.46843 1.284917,3.677794 l 0.190029,0.827983 -0.07736,-0.733333 C 34.562364,14.887273 34.178716,13.440413 33.695616,12.233927 31.602959,7.0077638 26.9912,3.2691898 21.271551,2.1622218 c -1.132033,-0.219092 -4.336782,-0.21904 -5.58091,9e-5 C 7.1801878,3.6612668 1.1475968,11.745449 2.2144828,20.221502 c 0.844721,6.711025 5.598265,12.21339 12.0488122,13.94685 0.528374,0.14199 1.080679,0.257542 1.227346,0.256782 0.146666,-8e-4 -0.123334,-0.112883 -0.6,-0.249162 z m 0.510402,-9.788089 c 0.556814,-0.287938 1.197407,-0.997181 1.368268,-1.514897 0.08323,-0.252204 0.125823,-0.811273 0.09464,-1.242376 -0.05868,-0.811273 -0.459434,-1.502721 -1.128386,-1.946888 -0.273807,-0.181801 -0.272772,-0.169327 0.03666,0.441875 1.042099,2.058406 -0.876737,4.380462 -3.081581,3.729141 l -0.666667,-0.196937 0.450678,0.383302 c 0.77658,0.660484 2.032058,0.809259 2.926391,0.34678 z m 8.069048,-0.111766 c 0.927745,-0.512192 1.537837,-1.752658 1.354807,-2.754655 -0.115623,-0.632977 -0.639878,-1.519593 -1.062127,-1.796261 -0.407228,-0.266827 -0.406365,-0.271423 -0.07213,0.384158 0.590963,1.159139 0.184575,2.719706 -0.884856,3.397918 -0.7439,0.471768 -1.48281,0.59118 -2.177386,0.35188 -0.66249,-0.228247 -0.696947,-0.06993 -0.06922,0.318026 0.982684,0.607332 1.931621,0.639584 2.910912,0.09893 z m -8.074138,-7.420448 c 1.358756,-0.696811 1.889657,-2.312885 1.216577,-3.703282 -0.230931,-0.47704 -0.852929,-1.109694 -1.091004,-1.109694 -0.0337,0 0.08544,0.285 0.264771,0.633333 1.046697,2.033132 -1.102611,4.441782 -3.238802,3.629603 -0.601019,-0.228507 -0.525624,-0.03401 0.153854,0.396904 0.526598,0.333957 0.781068,0.406827 1.420708,0.406827 0.503704,0 0.954114,-0.0897 1.273896,-0.253691 z m 8.254133,-0.184871 c 1.394933,-0.966689 1.593541,-2.89882 0.424318,-4.127927 -0.284682,-0.299264 -0.546582,-0.515137 -0.582001,-0.479718 -0.03542,0.03542 0.05858,0.300304 0.208879,0.588635 0.417069,0.800085 0.313617,2.011789 -0.22932,2.685946 -0.783135,0.972407 -2.021335,1.361959 -3.06626,0.964679 -0.360695,-0.137136 -0.363655,-0.134412 -0.132055,0.121503 0.457481,0.50551 1.032068,0.696277 1.966627,0.652934 0.703486,-0.03262 0.990058,-0.115164 1.409812,-0.406052 z"
       id="path453"
       class="line" />
  </g>
</svg>
