<?xml version="1.0" encoding="UTF-8" standalone="no"?>
<!-- Created with Inkscape (http://www.inkscape.org/) -->

<svg
   version="1.1"
   id="svg2"
   xml:space="preserve"
   width="1162.1227"
   height="1162.2107"
   viewBox="0 0 1162.1227 1162.2107"
   sodipodi:docname="vaporWave.svg"
   inkscape:version="1.1 (c68e22c387, 2021-05-23)"
   xmlns:inkscape="http://www.inkscape.org/namespaces/inkscape"
   xmlns:sodipodi="http://sodipodi.sourceforge.net/DTD/sodipodi-0.dtd"
   xmlns="http://www.w3.org/2000/svg"
   xmlns:svg="http://www.w3.org/2000/svg"><style
     id="style1677">
.sun { fill:#05a38e !important; }
</style><defs
     id="defs6"><radialGradient
       fx="0"
       fy="0"
       cx="0"
       cy="0"
       r="1"
       gradientUnits="userSpaceOnUse"
       gradientTransform="matrix(1400,0,0,-1400,1400,1400)"
       spreadMethod="pad"
       id="radialGradient26"><stop
         style="stop-opacity:1;stop-color:#291873"
         offset="0"
         id="stop22" /><stop
         style="stop-opacity:1;stop-color:#170e43"
         offset="1"
         id="stop24" /></radialGradient><linearGradient
       x1="0"
       y1="0"
       x2="1"
       y2="0"
       gradientUnits="userSpaceOnUse"
       gradientTransform="matrix(0,-868.65906,-868.65906,0,1400,1804.3759)"
       spreadMethod="pad"
       id="linearGradient1534"><stop
         style="stop-opacity:1;stop-color:#ece956"
         offset="0"
         id="stop1530" /><stop
         style="stop-opacity:1;stop-color:#ef3f6b"
         offset="1"
         id="stop1532" /></linearGradient><linearGradient
       x1="0"
       y1="0"
       x2="1"
       y2="0"
       gradientUnits="userSpaceOnUse"
       gradientTransform="matrix(0,-868.65906,-868.65906,0,1400,1804.3759)"
       spreadMethod="pad"
       id="linearGradient1554"><stop
         style="stop-opacity:1;stop-color:#ece956"
         offset="0"
         id="stop1550" /><stop
         style="stop-opacity:1;stop-color:#ef3f6b"
         offset="1"
         id="stop1552" /></linearGradient><linearGradient
       x1="0"
       y1="0"
       x2="1"
       y2="0"
       gradientUnits="userSpaceOnUse"
       gradientTransform="matrix(0,-868.65906,-868.65906,0,1400,1804.3759)"
       spreadMethod="pad"
       id="linearGradient1574"><stop
         style="stop-opacity:1;stop-color:#ece956"
         offset="0"
         id="stop1570" /><stop
         style="stop-opacity:1;stop-color:#ef3f6b"
         offset="1"
         id="stop1572" /></linearGradient><linearGradient
       x1="0"
       y1="0"
       x2="1"
       y2="0"
       gradientUnits="userSpaceOnUse"
       gradientTransform="matrix(0,-868.65906,-868.65906,0,1400,1804.3759)"
       spreadMethod="pad"
       id="linearGradient1594"><stop
         style="stop-opacity:1;stop-color:#ece956"
         offset="0"
         id="stop1590" /><stop
         style="stop-opacity:1;stop-color:#ef3f6b"
         offset="1"
         id="stop1592" /></linearGradient><linearGradient
       x1="0"
       y1="0"
       x2="1"
       y2="0"
       gradientUnits="userSpaceOnUse"
       gradientTransform="matrix(0,-868.65906,-868.65906,0,1400,1804.3759)"
       spreadMethod="pad"
       id="linearGradient1614"><stop
         style="stop-opacity:1;stop-color:#ece956"
         offset="0"
         id="stop1610" /><stop
         style="stop-opacity:1;stop-color:#ef3f6b"
         offset="1"
         id="stop1612" /></linearGradient><linearGradient
       x1="0"
       y1="0"
       x2="1"
       y2="0"
       gradientUnits="userSpaceOnUse"
       gradientTransform="matrix(0,-868.65906,-868.65906,0,1400,1804.3759)"
       spreadMethod="pad"
       id="linearGradient1634"><stop
         style="stop-opacity:1;stop-color:#ece956"
         offset="0"
         id="stop1630" /><stop
         style="stop-opacity:1;stop-color:#ef3f6b"
         offset="1"
         id="stop1632" /></linearGradient><linearGradient
       x1="0"
       y1="0"
       x2="1"
       y2="0"
       gradientUnits="userSpaceOnUse"
       gradientTransform="matrix(0,-868.65906,-868.65906,0,1400,1804.3759)"
       spreadMethod="pad"
       id="linearGradient1654"><stop
         style="stop-opacity:1;stop-color:#ece956"
         offset="0"
         id="stop1650" /><stop
         style="stop-opacity:1;stop-color:#ef3f6b"
         offset="1"
         id="stop1652" /></linearGradient></defs><sodipodi:namedview
     id="namedview4"
     pagecolor="#ffffff"
     bordercolor="#666666"
     borderopacity="1.0"
     inkscape:pageshadow="2"
     inkscape:pageopacity="0.0"
     inkscape:pagecheckerboard="0"
     showgrid="false"
     inkscape:zoom="0.64"
     inkscape:cx="52.34375"
     inkscape:cy="752.34375"
     inkscape:window-width="1920"
     inkscape:window-height="1001"
     inkscape:window-x="-9"
     inkscape:window-y="-9"
     inkscape:window-maximized="1"
     inkscape:current-layer="g8" /><g
     id="g8"
     inkscape:groupmode="layer"
     inkscape:label="vaporwave_RF_RMPL-01"
     transform="matrix(1.3333333,0,0,-1.3333333,-1285.6053,2447.7719)"><g
       id="g10"><g
         id="g12"><g
           id="g18"><g
             id="g20"><path
               id="path1820"
               d="" /></g></g></g></g><g
       id="g30"
       transform="translate(0,883.9998)" /><g
       id="g38"
       transform="translate(2755.1445,321.8493)" /><g
       id="g42"
       transform="translate(2753.6624,321.8545)" /><g
       id="g46"
       transform="translate(2611.9272,311.1051)" /><g
       id="g50"
       transform="translate(2610.4036,311.1104)" /><g
       id="g54"
       transform="translate(2479.1824,142.4464)" /><g
       id="g58"
       transform="translate(2477.7107,142.4515)" /><g
       id="g62"
       transform="translate(2308.344,369.8379)" /><g
       id="g66"
       transform="translate(2306.1501,369.8455)" /><g
       id="g70"
       transform="translate(2168.8232,453.0052)" /><g
       id="g74"
       transform="translate(2167.1143,453.0111)" /><g
       id="g78"
       transform="translate(1995.7407,341.5752)" /><g
       id="g82"
       transform="translate(1993.5089,341.5829)" /><g
       id="g86"
       transform="translate(1836.4033,183.852)" /><g
       id="g90"
       transform="translate(1835.2159,183.8561)" /><g
       id="g94"
       transform="translate(1665.299,273.034)" /><g
       id="g98"
       transform="translate(1664.1436,273.038)" /><g
       id="g102"
       transform="translate(1532.9348,192.9753)" /><g
       id="g106"
       transform="translate(1530.8446,192.9825)" /><g
       id="g110"
       transform="translate(1358.9445,316.4393)" /><g
       id="g114"
       transform="translate(1356.7072,316.4471)" /><g
       id="g118"
       transform="translate(1176.8409,213.6774)" /><g
       id="g122"
       transform="translate(1174.7635,213.6846)" /><g
       id="g126"
       transform="translate(993.5853,221.2272)" /><g
       id="g130"
       transform="translate(991.4323,221.2346)" /><g
       id="g134"
       transform="translate(828.697,328.2501)" /><g
       id="g138"
       transform="translate(827.3701,328.2547)" /><g
       id="g142"
       transform="translate(677.3351,212.1309)" /><g
       id="g146"
       transform="translate(675.3013,212.1379)" /><g
       id="g150"
       transform="translate(589.2843,544.0432)" /><g
       id="g154"
       transform="translate(587.9163,544.0479)" /><g
       id="g158"
       transform="translate(421.8518,305.3763)" /><g
       id="g162"
       transform="translate(420.0445,305.3825)" /><g
       id="g166"
       transform="translate(262.0326,361.9341)" /><g
       id="g170"
       transform="translate(259.8223,361.9418)" /><g
       id="g174"
       transform="translate(117.7022,416.3015)" /><g
       id="g178"
       transform="translate(116.5028,416.3057)" /><g
       id="g182"
       transform="translate(235.1286,992.9697)" /><g
       id="g186"
       transform="translate(233.3134,992.976)" /><g
       id="g190"
       transform="translate(417.0076,1075.2761)" /><g
       id="g194"
       transform="translate(415.509,1075.2814)" /><g
       id="g198"
       transform="translate(555.3298,712.8145)" /><g
       id="g202"
       transform="translate(553.6498,712.8204)" /><g
       id="g206"
       transform="translate(691.8955,791.168)" /><g
       id="g210"
       transform="translate(690.752,791.1719)" /><g
       id="g214"
       transform="translate(863.1065,961.1837)" /><g
       id="g218"
       transform="translate(861.8666,961.188)" /><g
       id="g222"
       transform="translate(1017.9128,757.8285)" /><g
       id="g226"
       transform="translate(1016.7271,757.8326)" /><g
       id="g230"
       transform="translate(1176.1122,902.6347)" /><g
       id="g234"
       transform="translate(1174.2301,902.6412)" /><g
       id="g238"
       transform="translate(1603.8839,673.5961)" /><g
       id="g242"
       transform="translate(1601.8314,673.6031)" /><g
       id="g246"
       transform="translate(1786.1945,1003.5262)" /><g
       id="g250"
       transform="translate(1783.3937,1003.5358)" /><g
       id="g254"
       transform="translate(1907.6401,871.2833)" /><g
       id="g258"
       transform="translate(1904.9109,871.2928)" /><g
       id="g262"
       transform="translate(2037.416,631.2974)" /><g
       id="g266"
       transform="translate(2035.0402,631.3057)" /><g
       id="g270"
       transform="translate(2222.4775,789.6476)" /><g
       id="g274"
       transform="translate(2220.9045,789.6531)" /><g
       id="g278"
       transform="translate(2393.6787,1040.2755)" /><g
       id="g282"
       transform="translate(2391.6848,1040.2825)" /><g
       id="g286"
       transform="translate(2525.5952,970.6078)" /><g
       id="g290"
       transform="translate(2524.3757,970.6121)" /><g
       id="g294"
       transform="translate(2651.9253,925.7089)" /><g
       id="g298"
       transform="translate(2650.4031,925.7141)" /><g
       id="g302"
       transform="translate(2664.8853,1103.2832)" /><g
       id="g306"
       transform="translate(2663.2068,1103.2889)" /><g
       id="g310"
       transform="translate(2533.9106,1125.3418)" /><g
       id="g314"
       transform="translate(2531.7302,1125.3494)" /><g
       id="g318"
       transform="translate(2407.7937,1525.9991)" /><g
       id="g322"
       transform="translate(2405.53,1526.007)" /><g
       id="g326"
       transform="translate(2253.6338,1394.3724)" /><g
       id="g330"
       transform="translate(2251.2393,1394.3807)" /><g
       id="g334"
       transform="translate(2074.6426,1384.2776)" /><g
       id="g338"
       transform="translate(2071.9624,1384.2869)" /><g
       id="g342"
       transform="translate(1910.0206,1219.142)" /><g
       id="g346"
       transform="translate(1908.702,1219.1466)" /><g
       id="g350"
       transform="translate(885.6707,1231.7727)" /><g
       id="g354"
       transform="translate(882.9308,1231.7822)" /><g
       id="g358"
       transform="translate(768.5287,1512.6775)" /><g
       id="g362"
       transform="translate(767.1574,1512.6823)" /><g
       id="g366"
       transform="translate(592.6628,1420.1259)" /><g
       id="g370"
       transform="translate(591.0101,1420.1316)" /><g
       id="g374"
       transform="translate(460.6576,1451.4604)" /><g
       id="g378"
       transform="translate(458.7961,1451.4669)" /><g
       id="g382"
       transform="translate(321.8487,1700.7529)" /><g
       id="g386"
       transform="translate(320.6014,1700.7572)" /><g
       id="g390"
       transform="translate(99.4009,1294.374)" /><g
       id="g394"
       transform="translate(97.5897,1294.3804)" /><g
       id="g398"
       transform="translate(79.7248,1898.5638)" /><g
       id="g402"
       transform="translate(76.9211,1898.5736)" /><g
       id="g406"
       transform="translate(207.6894,1752.4557)" /><g
       id="g410"
       transform="translate(205.3448,1752.4637)" /><g
       id="g414"
       transform="translate(339.9034,1778.2217)" /><g
       id="g418"
       transform="translate(338.1704,1778.2277)" /><g
       id="g422"
       transform="translate(474.2472,1840.7126)" /><g
       id="g426"
       transform="translate(471.6199,1840.7217)" /><g
       id="g430"
       transform="translate(631.5668,2174.5889)" /><g
       id="g434"
       transform="translate(630.1358,2174.5938)" /><g
       id="g438"
       transform="translate(758.23,1857.4877)" /><g
       id="g442"
       transform="translate(757.0258,1857.4919)" /><g
       id="g446"
       transform="translate(926.9841,1764.8597)" /><g
       id="g450"
       transform="translate(925.2451,1764.8657)" /><g
       id="g454"
       transform="translate(1063.5298,1795.6826)" /><g
       id="g458"
       transform="translate(1060.8262,1795.692)" /><g
       id="g462"
       transform="translate(1196.3191,1869.7596)" /><g
       id="g466"
       transform="translate(1194.7904,1869.765)" /><g
       id="g470"
       transform="translate(1383.4363,2017.5941)" /><g
       id="g474"
       transform="translate(1380.8584,2017.603)" /><g
       id="g478"
       transform="translate(1556.1167,1827.7133)" /><g
       id="g482"
       transform="translate(1553.3878,1827.7227)" /><g
       id="g486"
       transform="translate(1742.7385,2047.0814)" /><g
       id="g490"
       transform="translate(1740.064,2047.0907)" /><g
       id="g494"
       transform="translate(1859.7168,1746.1185)" /><g
       id="g498"
       transform="translate(1858.5828,1746.1224)" /><g
       id="g502"
       transform="translate(2024.4574,2106.4241)" /><g
       id="g506"
       transform="translate(2022.3884,2106.4312)" /><g
       id="g510"
       transform="translate(2171.1885,1980.9133)" /><g
       id="g514"
       transform="translate(2169.1572,1980.9203)" /><g
       id="g518"
       transform="translate(2336.9951,1923.1294)" /><g
       id="g522"
       transform="translate(2335.1318,1923.1359)" /><g
       id="g526"
       transform="translate(2487.1775,1825.0304)" /><g
       id="g530"
       transform="translate(2485.9819,1825.0344)" /><g
       id="g534"
       transform="translate(2618.0605,1644.7997)" /><g
       id="g538"
       transform="translate(2616.4463,1644.8052)" /><g
       id="g542"
       transform="translate(2739.688,1975.6683)" /><g
       id="g546"
       transform="translate(2738.2524,1975.6733)" /><g
       id="g550"
       transform="translate(2583.6016,2350.9341)" /><g
       id="g554"
       transform="translate(2581.323,2350.9419)" /><g
       id="g558"
       transform="translate(2410.4734,2197.6858)" /><g
       id="g562"
       transform="translate(2408.5083,2197.6926)" /><g
       id="g566"
       transform="translate(2269.5129,2164.26)" /><g
       id="g570"
       transform="translate(2266.7883,2164.2695)" /><g
       id="g574"
       transform="translate(2139.3638,2252.4109)" /><g
       id="g578"
       transform="translate(2136.7471,2252.4199)" /><g
       id="g582"
       transform="translate(2014.5287,2434.6899)" /><g
       id="g586"
       transform="translate(2012.9042,2434.6956)" /><g
       id="g590"
       transform="translate(1844.6211,2319.238)" /><g
       id="g594"
       transform="translate(1843.1923,2319.2432)" /><g
       id="g598"
       transform="translate(1676.2031,2363.6409)" /><g
       id="g602"
       transform="translate(1674.0551,2363.6484)" /><g
       id="g606"
       transform="translate(1539.3016,2089.0977)" /><g
       id="g610"
       transform="translate(1537.3895,2089.1045)" /><g
       id="g614"
       transform="translate(1399.9075,2206.8247)" /><g
       id="g618"
       transform="translate(1397.4764,2206.8333)" /><g
       id="g622"
       transform="translate(1244.9366,2053.1233)" /><g
       id="g626"
       transform="translate(1243.797,2053.1274)" /><g
       id="g630"
       transform="translate(1084.1381,2098.4348)" /><g
       id="g634"
       transform="translate(1082.8867,2098.4392)" /><g
       id="g638"
       transform="translate(954.4117,2126.4092)" /><g
       id="g642"
       transform="translate(951.8774,2126.418)" /><g
       id="g646"
       transform="translate(816.6387,2322.897)" /><g
       id="g650"
       transform="translate(814.6031,2322.9041)" /><g
       id="g654"
       transform="translate(688.9825,2545.5659)" /><g
       id="g658"
       transform="translate(686.6251,2545.574)" /><g
       id="g662"
       transform="translate(535.0835,2486.4504)" /><g
       id="g666"
       transform="translate(532.7239,2486.4587)" /><g
       id="g670"
       transform="translate(367.5488,2231.0884)" /><g
       id="g674"
       transform="translate(365.3449,2231.0959)" /><g
       id="g678"
       transform="translate(210.3885,2422.6982)" /><g
       id="g682"
       transform="translate(208.3138,2422.7053)" /><g
       id="g686"
       transform="translate(79.4167,2566.7537)" /><g
       id="g690"
       transform="translate(76.9498,2566.762)" /><g
       id="g694"
       transform="translate(46.093,2579.8088)" /><g
       id="g698"
       transform="translate(44.5411,2579.8142)" /><g
       id="g702"
       transform="translate(50.235,2658.2754)" /><g
       id="g706"
       transform="translate(47.7179,2658.2842)" /><g
       id="g710"
       transform="translate(165.5066,2590.3762)" /><g
       id="g714"
       transform="translate(162.7962,2590.3855)" /><g
       id="g718"
       transform="translate(273.8118,2723.8567)" /><g
       id="g722"
       transform="translate(272.0874,2723.8628)" /><g
       id="g726"
       transform="translate(446.3181,2682.0195)" /><g
       id="g730"
       transform="translate(444.0448,2682.0273)" /><g
       id="g734"
       transform="translate(574.8153,2737.2761)" /><g
       id="g738"
       transform="translate(573.1,2737.282)" /><g
       id="g742"
       transform="translate(890.3034,2712.4939)" /><g
       id="g746"
       transform="translate(887.9789,2712.502)" /><g
       id="g750"
       transform="translate(1638.4252,2590.1809)" /><g
       id="g754"
       transform="translate(1635.7946,2590.1902)" /><g
       id="g758"
       transform="translate(1775.3094,2762.55)" /><g
       id="g762"
       transform="translate(1774.042,2762.5544)" /><g
       id="g766"
       transform="translate(2637.6536,2620.4739)" /><g
       id="g770"
       transform="translate(2634.8965,2620.4834)" /><g
       id="g774"
       transform="translate(2761.5762,1190.377)" /><g
       id="g778"
       transform="translate(2759.9094,1190.3827)" /><g
       id="g782"
       transform="translate(2693.0925,1648.2972)" /><g
       id="g786"
       transform="translate(2691.8237,1648.3016)" /><g
       id="g790"
       transform="translate(2698.3093,2252.9897)" /><g
       id="g794"
       transform="translate(2695.5564,2252.9993)" /><g
       id="g798"
       transform="translate(2699.2998,2437.1345)" /><g
       id="g802"
       transform="translate(2697.3057,2437.1414)" /><g
       id="g806"
       transform="translate(2655.0112,2575.0771)" /><g
       id="g810"
       transform="translate(2652.8435,2575.0847)" /><g
       id="g814"
       transform="translate(2715.0601,2721.469)" /><g
       id="g818"
       transform="translate(2713.1953,2721.4756)" /><g
       id="g822"
       transform="translate(2547.0371,2751.0066)" /><g
       id="g826"
       transform="translate(2545.3936,2751.0122)" /><g
       id="g830"
       transform="translate(2347.728,2720.2549)" /><g
       id="g834"
       transform="translate(2346.2458,2720.26)" /><g
       id="g838"
       transform="translate(2358.4724,2576.9551)" /><g
       id="g842"
       transform="translate(2356.949,2576.9602)" /><g
       id="g846"
       transform="translate(2527.1311,2444.314)" /><g
       id="g850"
       transform="translate(2525.6594,2444.3188)" /><g
       id="g854"
       transform="translate(2299.7395,2272.031)" /><g
       id="g858"
       transform="translate(2297.5457,2272.0388)" /><g
       id="g862"
       transform="translate(2216.5723,2133.4802)" /><g
       id="g866"
       transform="translate(2214.8633,2133.4861)" /><g
       id="g870"
       transform="translate(2328.0022,1959.3518)" /><g
       id="g874"
       transform="translate(2325.7705,1959.3595)" /><g
       id="g878"
       transform="translate(2485.7253,1802.1034)" /><g
       id="g882"
       transform="translate(2484.5381,1802.1075)" /><g
       id="g886"
       transform="translate(2396.5435,1631.063)" /><g
       id="g890"
       transform="translate(2395.3879,1631.067)" /><g
       id="g894"
       transform="translate(2476.6021,1496.8291)" /><g
       id="g898"
       transform="translate(2474.512,1496.8363)" /><g
       id="g902"
       transform="translate(2353.1382,1322.5447)" /><g
       id="g906"
       transform="translate(2350.9009,1322.5524)" /><g
       id="g910"
       transform="translate(2455.9001,1140.7607)" /><g
       id="g914"
       transform="translate(2453.8225,1140.7679)" /><g
       id="g918"
       transform="translate(2448.3503,957.3541)" /><g
       id="g922"
       transform="translate(2446.1973,957.3616)" /><g
       id="g926"
       transform="translate(2341.3274,794.118)" /><g
       id="g930"
       transform="translate(2340.0005,794.1227)" /><g
       id="g934"
       transform="translate(2457.4465,641.3423)" /><g
       id="g938"
       transform="translate(2455.4128,641.3494)" /><g
       id="g942"
       transform="translate(2125.5344,554.623)" /><g
       id="g946"
       transform="translate(2124.1663,554.6278)" /><g
       id="g950"
       transform="translate(2364.2012,386.312)" /><g
       id="g954"
       transform="translate(2362.3938,386.3182)" /><g
       id="g958"
       transform="translate(2307.6433,225.6868)" /><g
       id="g962"
       transform="translate(2305.4331,225.6945)" /><g
       id="g966"
       transform="translate(2253.2759,83.3783)" /><g
       id="g970"
       transform="translate(2252.0764,83.3824)" /><g
       id="g974"
       transform="translate(1676.6078,199.5729)" /><g
       id="g978"
       transform="translate(1674.7926,199.5792)" /><g
       id="g982"
       transform="translate(1594.3013,382.0852)" /><g
       id="g986"
       transform="translate(1592.8027,382.0904)" /><g
       id="g990"
       transform="translate(1956.7629,520.0445)" /><g
       id="g994"
       transform="translate(1955.0829,520.0504)" /><g
       id="g998"
       transform="translate(1878.4095,657.6831)" /><g
       id="g1002"
       transform="translate(1877.266,657.6871)" /><g
       id="g1006"
       transform="translate(1708.3938,828.7015)" /><g
       id="g1010"
       transform="translate(1707.1539,828.7058)" /><g
       id="g1014"
       transform="translate(1911.749,983.6161)" /><g
       id="g1018"
       transform="translate(1910.5632,983.6203)" /><g
       id="g1022"
       transform="translate(1995.9814,1567.8536)" /><g
       id="g1026"
       transform="translate(1993.929,1567.8607)" /><g
       id="g1030"
       transform="translate(1798.2941,1870.2565)" /><g
       id="g1034"
       transform="translate(1795.5649,1870.2659)" /><g
       id="g1038"
       transform="translate(2038.28,2000.739)" /><g
       id="g1042"
       transform="translate(2035.9042,2000.7473)" /><g
       id="g1046"
       transform="translate(1879.9298,2187.4063)" /><g
       id="g1050"
       transform="translate(1878.3568,2187.4116)" /><g
       id="g1054"
       transform="translate(1629.3019,2357.7654)" /><g
       id="g1058"
       transform="translate(1627.3079,2357.7722)" /><g
       id="g1062"
       transform="translate(1698.9696,2491.2312)" /><g
       id="g1066"
       transform="translate(1697.7502,2491.2356)" /><g
       id="g1070"
       transform="translate(1743.8687,2616.9558)" /><g
       id="g1074"
       transform="translate(1742.3464,2616.9609)" /><g
       id="g1078"
       transform="translate(1566.4554,2741.2534)" /><g
       id="g1082"
       transform="translate(1564.4824,2741.2603)" /><g
       id="g1086"
       transform="translate(1566.2943,2629.603)" /><g
       id="g1090"
       transform="translate(1564.6158,2629.6089)" /><g
       id="g1094"
       transform="translate(1544.2356,2497.6248)" /><g
       id="g1098"
       transform="translate(1542.0552,2497.6323)" /><g
       id="g1102"
       transform="translate(1143.5782,2371.3408)" /><g
       id="g1106"
       transform="translate(1141.3145,2371.3486)" /><g
       id="g1110"
       transform="translate(1275.2051,2216.9194)" /><g
       id="g1114"
       transform="translate(1272.8104,2216.9277)" /><g
       id="g1118"
       transform="translate(1285.2998,2037.3571)" /><g
       id="g1122"
       transform="translate(1282.6198,2037.3663)" /><g
       id="g1126"
       transform="translate(1450.4354,1875.4583)" /><g
       id="g1130"
       transform="translate(1449.1169,1875.4629)" /><g
       id="g1134"
       transform="translate(1437.8047,848.2657)" /><g
       id="g1138"
       transform="translate(1435.0648,848.2752)" /><g
       id="g1142"
       transform="translate(1156.8999,733.861)" /><g
       id="g1146"
       transform="translate(1155.5287,733.8657)" /><g
       id="g1150"
       transform="translate(1249.4515,557.4321)" /><g
       id="g1154"
       transform="translate(1247.7988,557.4379)" /><g
       id="g1158"
       transform="translate(1218.1169,425.0093)" /><g
       id="g1162"
       transform="translate(1216.2555,425.0158)" /><g
       id="g1166"
       transform="translate(968.8245,287.4288)" /><g
       id="g1170"
       transform="translate(967.5772,287.4331)" /><g
       id="g1174"
       transform="translate(1375.2034,63.8532)" /><g
       id="g1178"
       transform="translate(1373.3922,63.8595)" /><g
       id="g1182"
       transform="translate(771.0136,42.1921)" /><g
       id="g1186"
       transform="translate(768.2098,42.2018)" /><g
       id="g1190"
       transform="translate(917.1218,171.075)" /><g
       id="g1194"
       transform="translate(914.7772,171.0831)" /><g
       id="g1198"
       transform="translate(891.3558,304.5121)" /><g
       id="g1202"
       transform="translate(889.6228,304.5182)" /><g
       id="g1206"
       transform="translate(828.8648,437.0673)" /><g
       id="g1210"
       transform="translate(826.2375,437.0764)" /><g
       id="g1214"
       transform="translate(494.9886,596.7796)" /><g
       id="g1218"
       transform="translate(493.5576,596.7845)" /><g
       id="g1222"
       transform="translate(812.0897,723.8963)" /><g
       id="g1226"
       transform="translate(810.8855,723.9005)" /><g
       id="g1230"
       transform="translate(904.7178,891.5809)" /><g
       id="g1234"
       transform="translate(902.9788,891.5869)" /><g
       id="g1238"
       transform="translate(873.8948,1026.1973)" /><g
       id="g1242"
       transform="translate(871.1912,1026.2065)" /><g
       id="g1246"
       transform="translate(799.8177,1161.3364)" /><g
       id="g1250"
       transform="translate(798.2891,1161.3418)" /><g
       id="g1254"
       transform="translate(651.9833,1346.3553)" /><g
       id="g1258"
       transform="translate(649.4055,1346.3643)" /><g
       id="g1262"
       transform="translate(841.8642,1518.7335)" /><g
       id="g1266"
       transform="translate(839.1353,1518.743)" /><g
       id="g1270"
       transform="translate(622.4961,1705.4642)" /><g
       id="g1274"
       transform="translate(619.8215,1705.4735)" /><g
       id="g1278"
       transform="translate(923.4589,1825.5234)" /><g
       id="g1282"
       transform="translate(922.3248,1825.5273)" /><g
       id="g1286"
       transform="translate(563.1534,1988.3942)" /><g
       id="g1290"
       transform="translate(561.0845,1988.4014)" /><g
       id="g1294"
       transform="translate(688.6642,2135.2009)" /><g
       id="g1298"
       transform="translate(686.633,2135.208)" /><g
       id="g1302"
       transform="translate(746.4481,2301.3435)" /><g
       id="g1306"
       transform="translate(744.5848,2301.3499)" /><g
       id="g1310"
       transform="translate(844.5471,2452.8611)" /><g
       id="g1314"
       transform="translate(843.3516,2452.8652)" /><g
       id="g1318"
       transform="translate(1024.7778,2582.907)" /><g
       id="g1322"
       transform="translate(1023.1636,2582.9126)" /><g
       id="g1326"
       transform="translate(693.9091,2704.8918)" /><g
       id="g1330"
       transform="translate(692.4736,2704.8967)" /><g
       id="g1334"
       transform="translate(401.9258,2726.0229)" /><g
       id="g1338"
       transform="translate(399.7849,2726.0305)" /><g
       id="g1342"
       transform="translate(318.6434,2547.1189)" /><g
       id="g1346"
       transform="translate(316.3647,2547.1267)" /><g
       id="g1350"
       transform="translate(471.8917,2374.6179)" /><g
       id="g1354"
       transform="translate(469.9266,2374.6248)" /><g
       id="g1358"
       transform="translate(505.3174,2232.1384)" /><g
       id="g1362"
       transform="translate(502.5928,2232.1479)" /><g
       id="g1366"
       transform="translate(417.1667,2102.2051)" /><g
       id="g1370"
       transform="translate(414.55,2102.2141)" /><g
       id="g1374"
       transform="translate(234.8875,1979.3544)" /><g
       id="g1378"
       transform="translate(233.263,1979.36)" /><g
       id="g1382"
       transform="translate(350.3393,1809.8383)" /><g
       id="g1386"
       transform="translate(348.9105,1809.8431)" /><g
       id="g1390"
       transform="translate(305.9365,1639.9817)" /><g
       id="g1394"
       transform="translate(303.7884,1639.9891)" /><g
       id="g1398"
       transform="translate(580.4797,1503.5521)" /><g
       id="g1402"
       transform="translate(578.5676,1503.5587)" /><g
       id="g1406"
       transform="translate(462.7526,1363.1202)" /><g
       id="g1410"
       transform="translate(460.3216,1363.1285)" /><g
       id="g1414"
       transform="translate(616.454,1210.7323)" /><g
       id="g1418"
       transform="translate(615.3145,1210.7362)" /><g
       id="g1422"
       transform="translate(571.1426,1049.7102)" /><g
       id="g1426"
       transform="translate(569.8913,1049.7146)" /><g
       id="g1430"
       transform="translate(543.1683,917.4178)" /><g
       id="g1434"
       transform="translate(540.634,917.4265)" /><g
       id="g1438"
       transform="translate(346.6804,780.6423)" /><g
       id="g1442"
       transform="translate(344.6449,780.6494)" /><g
       id="g1446"
       transform="translate(124.0116,652.3423)" /><g
       id="g1450"
       transform="translate(121.6541,652.3505)" /><g
       id="g1454"
       transform="translate(183.1269,498.439)" /><g
       id="g1458"
       transform="translate(180.7673,498.4471)" /><g
       id="g1462"
       transform="translate(438.4891,331.2157)" /><g
       id="g1466"
       transform="translate(436.2852,331.2233)" /><g
       id="g1470"
       transform="translate(246.8793,174.3137)" /><g
       id="g1474"
       transform="translate(244.8045,174.3209)" /><g
       id="g1478"
       transform="translate(102.8239,42.5576)" /><g
       id="g1482"
       transform="translate(100.357,42.5661)" /><g
       id="g1486"
       transform="translate(79.2013,128.1606)" /><g
       id="g1490"
       transform="translate(76.491,128.17)" /><g
       id="g1494"
       transform="translate(79.3964,1601.2388)" /><g
       id="g1498"
       transform="translate(76.7659,1601.2479)" /><g
       id="g1502"
       transform="translate(49.1037,2600.2141)" /><g
       id="g1506"
       transform="translate(46.3465,2600.2236)" /><g
       id="g1510"
       transform="translate(116.0079,2729.5076)" /><g
       id="g1514"
       transform="translate(114.1915,2729.5139)" /><g
       id="g1518"><g
         id="g1520"><g
           id="g1526"><g
             id="g1528"><path
               d="m 971.892,1317.911 c 3.694,-19.38 8.674,-38.305 14.844,-56.683 v 0 h 826.528 c 6.17,18.378 11.149,37.303 14.844,56.683 v 0 z"
               style="stroke:none"
               id="path1536"
               class="sun" /></g></g></g></g><g
       id="g1538"><g
         id="g1540"><g
           id="g1546"><g
             id="g1548"><path
               d="m 1033.303,1164.369 c 10.654,-16.547 22.399,-32.322 35.13,-47.231 v 0 h 663.134 c 12.731,14.909 24.476,30.684 35.13,47.231 v 0 z"
               style="stroke:none"
               id="path1556"
               class="sun" /></g></g></g></g><g
       id="g1558"><g
         id="g1560"><g
           id="g1566"><g
             id="g1568"><path
               d="m 1096.112,1087.596 c 15.84,-15.411 32.848,-29.626 50.879,-42.503 v 0 h 506.018 c 18.031,12.877 35.039,27.092 50.879,42.503 v 0 z"
               style="stroke:none"
               id="path1576"
               class="sun" /></g></g></g></g><g
       id="g1578"><g
         id="g1580"><g
           id="g1586"><g
             id="g1588"><path
               d="m 994.035,1241.14 c 7.021,-17.928 15.196,-35.277 24.433,-51.957 v 0 h 763.064 c 9.237,16.68 17.412,34.029 24.433,51.957 v 0 z"
               style="stroke:none"
               id="path1596"
               class="sun" /></g></g></g></g><g
       id="g1598"><g
         id="g1600"><g
           id="g1606"><g
             id="g1608"><path
               d="m 1203.62,1010.825 c 59.013,-29.838 125.732,-46.654 196.38,-46.654 v 0 c 70.648,0 137.366,16.816 196.38,46.654 v 0 z"
               style="stroke:none"
               id="path1616"
               class="sun" /></g></g></g></g><g
       id="g1618"><g
         id="g1620"><g
           id="g1626"><g
             id="g1628"><path
               d="m 964.204,1405.318 h 871.592 c -2.85,238.25 -196.869,430.511 -435.796,430.511 v 0 c -238.927,0 -432.946,-192.261 -435.796,-430.511"
               style="stroke:none"
               id="path1636"
               class="sun" /></g></g></g></g><g
       id="g1638"><g
         id="g1640"><g
           id="g1646"><g
             id="g1648"><path
               d="m 964.204,1394.682 c 0.249,-20.854 1.964,-41.357 5.045,-61.409 v 0 h 861.502 c 3.081,20.052 4.795,40.555 5.045,61.409 v 0 z"
               style="stroke:none"
               id="path1656"
               class="sun" /></g></g></g></g></g></svg>
